<svg width="16" height="16" viewBox="0 0 16 16" fill="none" xmlns="http://www.w3.org/2000/svg">
<path d="M8.93531 2C8.93531 1.44781 9.37857 1 9.92722 1H13.867C14.0282 1 14.1584 1.02688 14.273 1.07594C14.3629 1.12438 14.4993 1.19594 14.5954 1.29062C14.5954 1.29219 14.5954 1.29375 14.5985 1.295C14.7907 1.48937 14.8589 1.74313 14.8868 1.99688C14.8868 1.99813 14.8868 1.99906 14.8868 2V6C14.8868 6.55313 14.4435 7 13.8949 7C13.3462 7 12.903 6.55313 12.903 6V4.41563L7.65202 9.70625C7.26456 10.0969 6.63841 10.0969 6.25094 9.70625C5.86348 9.31563 5.86348 8.68437 6.25094 8.29375L11.4988 3H9.92722C9.37857 3 8.93531 2.55219 8.93531 2ZM1 4C1 2.89531 1.88807 2 2.98383 2H5.95957C6.50822 2 6.95148 2.44781 6.95148 3C6.95148 3.55313 6.50822 4 5.95957 4H2.98383V13H11.9111V10C11.9111 9.44687 12.3543 9 12.903 9C13.4516 9 13.8949 9.44687 13.8949 10V13C13.8949 14.1031 13.0053 15 11.9111 15H2.98383C1.88807 15 1 14.1031 1 13V4Z" fill="#37474F"/>
</svg>
