<svg width="70" height="60" viewBox="0 0 70 60" fill="none" xmlns="http://www.w3.org/2000/svg">
<rect width="70" height="60" fill="white"/>
<rect x="1" y="10.6006" width="57.2147" height="41.6107" rx="2" fill="#00ADF8"/>
<rect x="4.10083" y="8.5" width="54.9144" height="40.6107" rx="1.5" fill="white" stroke="#263238"/>
<line x1="3.60083" y1="17.9023" x2="58.2149" y2="17.9023" stroke="black"/>
<rect x="10.1024" y="23.6045" width="13.0033" height="18.2047" fill="#FFE2DD"/>
<rect x="25.7065" y="23.6045" width="13.0033" height="18.2047" fill="#FFE2DD"/>
<rect x="41.3105" y="23.6045" width="13.0033" height="18.2047" fill="#FFE2DD"/>
<circle cx="10.1023" cy="13.2017" r="1.30033" fill="#78909C"/>
<circle cx="14.0031" cy="13.2017" r="1.30033" fill="#78909C"/>
<circle cx="17.9045" cy="13.2017" r="1.30033" fill="#78909C"/>
<path d="M57.0299 24.7961C56.8753 24.7072 56.685 24.7073 56.5306 24.7965C56.3761 24.8857 56.2809 25.0504 56.2806 25.2287L56.2614 36.8985C56.2611 37.0772 56.3563 37.2426 56.511 37.3321C56.6658 37.4216 56.8565 37.4217 57.0114 37.3323L60.183 35.5011L62.0365 38.7115C62.1746 38.9506 62.4804 39.0325 62.7195 38.8945L65.6453 37.2053C65.8844 37.0672 65.9664 36.7614 65.8283 36.5223L63.9748 33.3119L67.1465 31.4808C67.3013 31.3914 67.3966 31.2261 67.3965 31.0474C67.3963 30.8686 67.3007 30.7035 67.1458 30.6144L57.0299 24.7961Z" fill="white" stroke="#263238" stroke-linejoin="round"/>
</svg>
