<svg id="Group_184" data-name="Group 184" xmlns="http://www.w3.org/2000/svg" width="48" height="34.62" viewBox="0 0 48 34.62">
  <path id="Rectangle_68" data-name="Rectangle 68" d="M3.35,6.38h41.3A3.35,3.35,0,0,1,48,9.73h0a3.35,3.35,0,0,1-3.35,3.35H3.35A3.35,3.35,0,0,1,0,9.73H0A3.35,3.35,0,0,1,3.35,6.38Z" transform="translate(0 -6.38)" fill="#675d51"/>
  <path id="Rectangle_69" data-name="Rectangle 69" d="M3.35,20.89h41.3A3.35,3.35,0,0,1,48,24.24h0a3.35,3.35,0,0,1-3.35,3.35H3.35A3.35,3.35,0,0,1,0,24.24H0a3.35,3.35,0,0,1,3.35-3.35Z" transform="translate(0 -6.38)" fill="#675d51"/>
  <path id="Rectangle_70" data-name="Rectangle 70" d="M3.35,34.29h41.3A3.35,3.35,0,0,1,48,37.64h0A3.34,3.34,0,0,1,44.65,41H3.35A3.34,3.34,0,0,1,0,37.64H0a3.35,3.35,0,0,1,3.35-3.35Z" transform="translate(0 -6.38)" fill="#675d51"/>
</svg>
