<svg xmlns="http://www.w3.org/2000/svg" width="209.332" height="141.351" viewBox="0 0 209.332 141.351">
  <g id="Layer_2" data-name="Layer 2" transform="translate(-0.014 9.33)">
    <path id="Path_1294" data-name="Path 1294" d="M31.31,144c2.36,5.07,11,6.74,23.34,5.39a65.58,65.58,0,0,1-12.47-26.71C33.19,131.25,29,138.89,31.31,144Z" transform="translate(-2.04 -42.83)" fill="none"/>
    <path id="Path_1295" data-name="Path 1295" d="M182.13,73.7c-2.36-5.07-10.95-6.74-23.34-5.39A65.62,65.62,0,0,1,171.26,95C180.25,86.41,184.49,78.78,182.13,73.7Z" transform="translate(-2.04 -42.83)" fill="none"/>
    <path id="Path_1296" data-name="Path 1296" d="M172.7,108.15a359.064,359.064,0,0,1-52.47,29.69A359,359,0,0,1,63.75,158.9c-32,8.67-56,8.71-60.82-1.72s10.6-28.77,37.81-47.66a66,66,0,0,0,1.44,13.12c-9,8.61-13.23,16.25-10.87,21.32s11,6.74,23.34,5.39c16-1.73,38.4-8.5,61.89-19.44S159.63,106.18,171.26,95c9-8.62,13.23-16.25,10.87-21.33S171.18,67,158.79,68.31a65.77,65.77,0,0,0-9.1-9.55c32-8.67,56-8.71,60.82,1.72S199.91,89.25,172.7,108.15Z" transform="translate(-2.04 -42.83)" fill="#a7dce8"/>
    <path id="Path_1297" data-name="Path 1297" d="M144.5,109.5c.43-.14-48.82,30-74.41,32,.15,0,7.76.14,18.76-.39a281.47,281.47,0,0,0,27.69-11.19C140,119,159.63,106.18,171.26,95a65.42,65.42,0,0,0-9.94-23.22C141.13,108.58,77.5,122.5,77.5,122.5c57-19,61-55,60.56-54.64C125.61,77.22,85.5,91.5,85.5,91.5c24.92-12,48.25-42.23,48.75-42.64a66,66,0,0,0-93,51.92c.86-1.2,41.51,4.62,75.27-9.28.19-.3-28.88,22.7-75.43,23.85a63,63,0,0,0,2.93,14C44.89,129.73,84.55,136,144.5,109.5Z" transform="translate(-2.04 -42.83)" fill="#e2b354"/>
    <path id="Path_1298" data-name="Path 1298" d="M85.5,91.5s40.11-14.28,52.56-23.64c.44-.36-3.56,35.64-60.56,54.64,0,0,63.63-13.92,83.82-50.69-.81-1.19-1.64-2.36-2.53-3.5a66,66,0,0,0-24.54-19.45C133.75,49.27,110.42,79.54,85.5,91.5Z" transform="translate(-2.04 -42.83)" fill="#ef9900"/>
    <path id="Path_1299" data-name="Path 1299" d="M41.23,100.78a66.78,66.78,0,0,0-.51,8v.69c0,2,.14,3.91.33,5.83,46.57-1.1,75.64-24.1,75.45-23.8C82.74,105.4,42.09,99.58,41.23,100.78Z" transform="translate(-2.04 -42.83)" fill="#ef9900"/>
    <path id="Path_1300" data-name="Path 1300" d="M172.7,108.15a359.064,359.064,0,0,1-52.47,29.69l-.62.28c12.53-1.92,25.17-4.93,34.89-9.62,0,0-40,29.3-89.26,30l-1.49.42a66,66,0,0,0,109-50.07A5.763,5.763,0,0,1,172.7,108.15Z" transform="translate(-2.04 -42.83)" fill="#e2b354"/>
    <path id="Path_1301" data-name="Path 1301" d="M119.61,138.12a360,360,0,0,1-54.37,20.36c49.21-.68,89.26-30,89.26-30C144.78,133.19,132.14,136.2,119.61,138.12Z" transform="translate(-2.04 -42.83)" fill="#ef9900"/>
    <path id="Path_1302" data-name="Path 1302" d="M70.09,141.49c25.59-2,74.84-32.13,74.41-32C84.55,136,44.89,129.73,44,129.35a65.67,65.67,0,0,0,10.65,20c9.52-1,21.29-3.85,34.2-8.25C77.85,141.63,70.24,141.49,70.09,141.49Z" transform="translate(-2.04 -42.83)" fill="#ef9900"/>
    <path id="Path_1303" data-name="Path 1303" d="M111.5,33.5" transform="translate(-2.04 -42.83)" fill="#e2b354" stroke="#000" stroke-miterlimit="10" stroke-width="1"/>
  </g>
</svg>
