<svg id="Group_1" data-name="Group 1" xmlns="http://www.w3.org/2000/svg" width="1054.234" height="1123.942" viewBox="0 0 1054.234 1123.942">
  <g id="Group_498" data-name="Group 498" transform="translate(0 0)">
    <path id="blob_5_" data-name="blob (5)" d="M261.735,69.7c24.4,29.752,41.952,58.434,56.293,94.393,14.341,35.745,25.471,78.982,12.414,114.085-13.271,34.889-50.728,61.858-91.824,75.129-41.1,13.485-85.831,13.485-125.429-.856s-74.059-43.023-93.322-78.982C.389,237.29-3.678,193.84,2.958,151.459c6.849-42.166,24.4-83.048,54.795-111.73C88.361,11.048,131.6-5.434,169.055,1.63,206.3,8.907,237.548,39.943,261.735,69.7Z" transform="translate(0 784.762) rotate(-21)" fill="#6b6156"/>
    <path id="blob_6_" data-name="blob (6)" d="M586.9,141.177c55.827,88.148,54.358,203.231,23.506,300.194-31.342,96.963-92.556,175.807-179.725,228.7C343.027,722.956,229.9,750.38,147.632,711.692,65.36,672.515,13.94,567.227,2.677,466.836-9.076,366.445,18.348,271.44,75.644,182.8,132.94,93.675,219.62,11.4,319.031,1.119,418.933-9.165,531.567,52.539,586.9,141.177Z" transform="translate(1054.234 261.558) rotate(111)" fill="#fff2a8"/>
  </g>
  <g id="Layer_2" data-name="Layer 2" transform="translate(41.814 202.38)">
    <g id="Woman" transform="translate(0 0)">
      <path id="Path_196" data-name="Path 196" d="M314.66,274.94c1.8,10.7,32.32,255.374,37.265,259.419s57.449,13.014,61.944,6.271c.9-10.7,2.141-181.315,4.923-196.576" transform="translate(358.848 313.548)" fill="#1f161e"/>
      <path id="Path_197" data-name="Path 197" d="M41.487,328.468C20.318,318.022,64.454,524.659,180.615,524.659S492.3,347.71,523.96,347.71c69.885,0,235.318,137.223,248.289,137.223,9.932-9.932,29.795-27.312,29.795-34.14S643.652,183.24,525.137,183.24C479.182,183.2,89.283,352.077,41.487,328.468Z" transform="translate(41.478 208.971)" fill="#969faa"/>
      <path id="Path_198" data-name="Path 198" d="M106.858,270.236c23.224-5.266,52.119-18.9,77.7-32.856C114.97,260.111,57.949,274.859,41.489,266.725c-11.216-5.522-4.11,49.786,22.26,103.061C58.977,359.47,52.17,282.628,106.858,270.236Z" transform="translate(41.476 270.714)" fill="#1f161e"/>
      <path id="Path_199" data-name="Path 199" d="M196.694,83.392c18.3.492,113.571-2.312,139.684,22.56,19.371,18.429,79.6,177.12,88.892,232.835C384.816,359.336,93.033,499.063,2.729,437.611.738,389.858,10.006,200.153,69.061,100.644,90.658,86.261,179.1,82.922,196.694,83.392Z" transform="translate(2.838 95.055)" fill="#c36448"/>
      <path id="Path_200" data-name="Path 200" d="M140.211,62.15H84.56v59.825c0,14.983,55.651,14.855,55.651,0Z" transform="translate(96.436 70.877)" fill="#f8cdba"/>
      <path id="Path_201" data-name="Path 201" d="M84.56,100.668c0-6.635,18.386-23.309,29.752-22.731C114.59,70.7,88.349,60,88.349,60L84.56,70.21Z" transform="translate(96.436 68.425)" fill="#1f161e"/>
      <path id="Path_202" data-name="Path 202" d="M218.9,114.108a83.287,83.287,0,0,0,1.884-17.594c0-44.136-34.482-79.923-77.055-79.923S66.67,52.378,66.67,96.513a83.242,83.242,0,0,0,1.88,17.577Z" transform="translate(76.034 18.92)" fill="#1f161e"/>
      <path id="Path_203" data-name="Path 203" d="M185.789,44.31c-9.439-1.434-18.857-8.861-25.428-13.72C122.9,58.03,98.909,58.415,96.319,58.415s-13.142,15.154-18,16.867l-.428-.257A58.434,58.434,0,1,0,190.2,44.31,17.893,17.893,0,0,1,185.789,44.31Z" transform="translate(88.83 34.886)" fill="#f8cdba"/>
      <ellipse id="Ellipse_144" data-name="Ellipse 144" cx="22.731" cy="22.731" rx="22.731" ry="22.731" transform="translate(155.29)" fill="#1f161e"/>
      <path id="Path_204" data-name="Path 204" d="M92.757,43a9.568,9.568,0,0,0,0,19.114" transform="translate(95.389 49.038)" fill="none" stroke="#1f161e" stroke-linecap="round" stroke-miterlimit="10" stroke-width="2"/>
      <path id="Path_205" data-name="Path 205" d="M121.94,43.54c2.8,3.746,10.017,10.3,0,17.252" transform="translate(139.065 49.654)" fill="none" stroke="#1f161e" stroke-linecap="round" stroke-miterlimit="10" stroke-width="2"/>
      <path id="Path_206" data-name="Path 206" d="M107.75,54c0,2.8,1.2,9.5,7.213,11.237" transform="translate(122.883 61.583)" fill="none" stroke="#1f161e" stroke-linecap="round" stroke-miterlimit="10" stroke-width="2"/>
      <ellipse id="Ellipse_145" data-name="Ellipse 145" cx="8.819" cy="4.581" rx="8.819" ry="4.581" transform="translate(203.171 107.021)" fill="#fa9e9f"/>
      <ellipse id="Ellipse_146" data-name="Ellipse 146" cx="8.819" cy="4.581" rx="8.819" ry="4.581" transform="translate(268.732 107.021)" fill="#fa9e9f"/>
      <path id="Path_207" data-name="Path 207" d="M157.54,168.794l59.482-15.3c5.715,9.653,33.54,105.2,33.54,105.2l-91.824,38.7C159.937,279.283,163.555,196.534,157.54,168.794Z" transform="translate(179.664 175.044)" fill="#f8cdba"/>
      <path id="Path_208" data-name="Path 208" d="M65.232,153.65c0,7.192-6.057,34.568-9.632,47.432" transform="translate(63.41 175.226)" fill="none" stroke="#1f161e" stroke-linecap="round" stroke-miterlimit="10" stroke-width="2"/>
      <path id="Path_209" data-name="Path 209" d="M170.381,218.562c-1.434-11.323-9.824-75.129-24.1-108.712" transform="translate(166.823 125.275)" fill="none" stroke="#1f161e" stroke-linecap="round" stroke-miterlimit="10" stroke-width="2"/>
      <path id="Path_210" data-name="Path 210" d="M157.54,168.794l59.482-15.3c5.715,9.653,33.54,105.2,33.54,105.2l-91.824,38.7C159.937,279.283,163.555,196.534,157.54,168.794Z" transform="translate(179.664 175.044)" fill="#f8cdba"/>
      <path id="Path_211" data-name="Path 211" d="M381,335.7c1.327,2.033,19.05,23.866,25.321,24.122s44.35-25.557,42.68-31.1-25.557-1.948-29.666-3.874-13.249-11.087-14.7-15.176" transform="translate(434.503 353.155)" fill="#1f161e"/>
      <path id="Path_212" data-name="Path 212" d="M337.823,398.443c-.449,2.376-2.868,30.394,1.477,34.932s49.658,12.414,52.291,7.256-17.123-19.135-18.643-23.374-1.841-17.123,0-21.147" transform="translate(384.037 451.733)" fill="#1f161e"/>
      <path id="Path_213" data-name="Path 213" d="M411.454,273.193H209.89L257.878,146.03H459.442Z" transform="translate(239.365 166.536)" fill="#1f161e"/>
      <rect id="Rectangle_300" data-name="Rectangle 300" width="201.564" height="4.795" transform="translate(281.296 434.934)" fill="#969696"/>
      <path id="Path_214" data-name="Path 214" d="M119.009,188.07c-3.874,14.534-22.774,76.52-14.983,87.179s199.573-13.57,250.922-29.538c13.078-4.281,22.774-15.518,28.575-16.952a30.629,30.629,0,0,1,34.546,21.79C397.563,260.48,101.5,411.637,5.566,344.363c-18.129-12.907,13.7-171.3,15.133-179.3C36.9,167.072,119.009,188.07,119.009,188.07Z" transform="translate(0.001 188.238)" fill="#f8cdba"/>
      <path id="Path_215" data-name="Path 215" d="M158.82,215.984c5.779-1.37,10.831-2.7,14.983-3.981,13.078-4.281,22.774-15.518,28.575-16.952a30.63,30.63,0,0,1,34.568,21.79" transform="translate(181.124 221.946)" fill="none" stroke="#1f161e" stroke-linecap="round" stroke-miterlimit="10" stroke-width="2"/>
    </g>
  </g>
  <g id="Layer_2-2" data-name="Layer 2" transform="translate(483.593 118.21)">
    <g id="Layer_1" data-name="Layer 1" transform="translate(0 0)">
      <path id="Path_216" data-name="Path 216" d="M157.829,72.5H488.535a17.33,17.33,0,0,1,17.33,17.329V301.56H140.5V89.829A17.329,17.329,0,0,1,157.829,72.5Z" transform="translate(-61.835 -32.061)" fill="#232326"/>
      <g id="Group_499" data-name="Group 499" transform="translate(13.301 234.439)">
        <ellipse id="Ellipse_147" data-name="Ellipse 147" cx="8.133" cy="8.133" rx="8.133" ry="8.133" fill="#dc3c0f"/>
        <ellipse id="Ellipse_148" data-name="Ellipse 148" cx="8.133" cy="8.133" rx="8.133" ry="8.133" transform="translate(22.912)" fill="#dc3c0f"/>
        <ellipse id="Ellipse_149" data-name="Ellipse 149" cx="8.133" cy="8.133" rx="8.133" ry="8.133" transform="translate(45.829)" fill="#dc3c0f"/>
        <ellipse id="Ellipse_150" data-name="Ellipse 150" cx="8.133" cy="8.133" rx="8.133" ry="8.133" transform="translate(68.741)" fill="#dc3c0f"/>
        <ellipse id="Ellipse_151" data-name="Ellipse 151" cx="8.133" cy="8.133" rx="8.133" ry="8.133" transform="translate(91.658)" fill="#dc3c0f"/>
        <ellipse id="Ellipse_152" data-name="Ellipse 152" cx="8.133" cy="8.133" rx="8.133" ry="8.133" transform="translate(114.57)" fill="#dc3c0f"/>
      </g>
      <rect id="Rectangle_301" data-name="Rectangle 301" width="423.054" height="23.754" transform="translate(49.821 269.216)" fill="none" stroke="#000" stroke-miterlimit="10" stroke-width="2"/>
      <rect id="Rectangle_302" data-name="Rectangle 302" width="188.133" height="122.071" transform="translate(21.542 10.053)" fill="#f1b340"/>
      <rect id="Rectangle_304" data-name="Rectangle 304" width="188.133" height="122.071" transform="translate(0 0)" fill="none" stroke="#000" stroke-miterlimit="10" stroke-width="2"/>
      <rect id="Rectangle_305" data-name="Rectangle 305" width="80.423" height="15.797" transform="translate(221.164 267.12)" fill="#c36448"/>
    </g>
  </g>
</svg>
