<svg xmlns="http://www.w3.org/2000/svg" width="492" height="233" viewBox="0 0 492 233">
  <g id="Layer_2" transform="translate(0.3)">
    <g id="Layer_2_2_" transform="translate(0 0.001)">
      <g id="Layer_1_1_" transform="translate(0 -0.001)">
        <path id="Path_4" d="M5.9,206.4v-7.6l7.5-.8c1.7-.2,1.9-.6,1.9-2.4V131.5c0-1.8-.2-2.2-1.9-2.4l-7.5-.8v-7.7h35v7.7l-9.8,1c-1.8.1-1.9.6-1.9,2.2v64.8H55.7c1.3,0,1.7-.1,1.9-1.3l1.9-11.3h10v22.6Z" fill="#675d51"/>
        <path id="Path_5" d="M117.5,206.4l-1.2-7-.4-.1A28.6,28.6,0,0,1,95,207.8a15.071,15.071,0,0,1-16.9-12.9,12.75,12.75,0,0,1,0-3.9c0-11.9,7.3-17.5,21.8-18.7l15-1.2v-6c0-7.5-1.3-11.5-10.4-11.5-6.5,0-10.9.5-10.9,8.7l-12.8-1.2c0-15.2,13.9-17.1,23.9-17.1,17.2,0,23.6,4.9,23.6,21.2v30.5c0,1.9.1,2.1,1.9,2.4l5.8.8v7.6ZM115,179.8l-11.3.9c-8.9.8-11.6,3.3-11.6,9s2.7,7.6,7.6,7.6a23.563,23.563,0,0,0,15.3-7.1Z" fill="#675d51"/>
        <path id="Path_6" d="M180.3,206.4V199l5.9-.7c1.7-.2,1.9-1,1.9-2.4V168.4c0-7.1-.8-13-8.4-13a29.988,29.988,0,0,0-16.2,6.2v34.1c0,1.9.1,2.1,1.9,2.4l6.3.8v7.6H142.3v-7.7l5.7-.7c1.7-.2,1.9-.6,1.9-2.4V157.5a2.274,2.274,0,0,0-1.5-2.5l-6.5-2.2,1.2-7.6h17.5l1,6.5.5.1a38.558,38.558,0,0,1,22.2-7.8c12.8,0,17.6,8.1,17.6,21.7v30c0,1.9.1,2.1,1.9,2.4l6.5.8v7.6Z" fill="#675d51"/>
        <path id="Path_7" d="M265.7,154.5a18.755,18.755,0,0,1,4.5,12.2c0,13.7-10.9,21.3-24.8,21.3a36.693,36.693,0,0,1-9.9-1.1l-5.5,9,14.6.7c21.1,1.1,31.2,2.1,31.2,16.5,0,12.6-10.9,19.9-31.5,19.9-20.9,0-28.3-5.6-28.3-14.6a17.087,17.087,0,0,1,7.2-12.9,7.938,7.938,0,0,1-5.5-7.3,10.155,10.155,0,0,1,3-6.8c2-2.2,4.4-5.1,6.5-7.3a18.877,18.877,0,0,1-9.2-17.4c0-13.2,9.2-22.8,26.2-22.8a41.534,41.534,0,0,1,11.1,1.2h21.6v8.6Zm-33.2,53.6a13.951,13.951,0,0,0-4.5,8.3c0,5.5,6.3,7.2,16.6,7.2,6,0,17.5-.9,17.5-8.5,0-5.2-4.5-5.5-11.4-5.9Zm12.4-54.5a12.181,12.181,0,0,0-13.7,10.5,20.082,20.082,0,0,0-.1,2.5c0,6.8,3.7,11.9,13.4,11.9A12.08,12.08,0,0,0,258,167.9a7.568,7.568,0,0,0,.1-1.5,11.777,11.777,0,0,0-10.8-12.7,6.473,6.473,0,0,0-2.4-.1Z" fill="#675d51"/>
        <path id="Path_8" d="M319.7,206.4l-1.2-7-.4-.1a28.6,28.6,0,0,1-20.9,8.5,15.071,15.071,0,0,1-16.9-12.9,12.749,12.749,0,0,1,0-3.9c0-11.9,7.3-17.5,21.8-18.7l15-1.2v-6c0-7.5-1.3-11.5-10.4-11.5-6.5,0-10.9.5-10.9,8.7L283,161.1c0-15.2,13.9-17.1,23.9-17.1,17.2,0,23.6,4.9,23.6,21.2v30.5c0,1.9.1,2.1,1.9,2.4l5.8.8v7.6Zm-2.4-26.6-11.3.9c-8.9.8-11.6,3.3-11.6,9s2.7,7.6,7.6,7.6a23.563,23.563,0,0,0,15.3-7.1Z" fill="#675d51"/>
        <path id="Path_9" d="M344.5,206.4v-7.7l5.7-.7c1.7-.2,1.9-.6,1.9-2.4V157.4a2.3,2.3,0,0,0-1.5-2.5l-6.5-2.2,1.2-7.6H363l1.3,8.6.4.1a22.024,22.024,0,0,1,17.4-10,40.613,40.613,0,0,1,9.2,1.1v19.4l-10.7-.5-1.4-7.4c-.1-1.1-.4-1.3-1.4-1.3a21.014,21.014,0,0,0-12,6.1v34c0,1.9.2,2.2,2,2.4l11.1.9v7.6Z" fill="#675d51"/>
        <path id="Path_10" d="M434.8,206.4l-1.2-7-.4-.1a28.6,28.6,0,0,1-20.9,8.5,15.071,15.071,0,0,1-16.9-12.9,12.749,12.749,0,0,1,0-3.9c0-11.9,7.3-17.5,21.8-18.7l15-1.2v-6c0-7.5-1.3-11.5-10.4-11.5-6.5,0-10.9.5-10.9,8.7l-12.8-1.2c0-15.2,13.9-17.1,23.9-17.1,17.2,0,23.6,4.9,23.6,21.2v30.5c0,1.9.1,2.1,1.9,2.4l5.8.8v7.6Zm-2.5-26.6-11.3.9c-8.9.8-11.6,3.3-11.6,9s2.7,7.6,7.6,7.6a23.563,23.563,0,0,0,15.3-7.1Z" fill="#675d51"/>
        <path id="Path_11" d="M470.1,207.9c-5.8,0-8.8-2.7-8.8-8.2s3-8.2,8.8-8.2,8.6,2.8,8.6,8.2S475.8,207.9,470.1,207.9Z" fill="#675d51"/>
        <line id="Line_12" x2="492" transform="translate(-0.3 93.8)" fill="none" stroke="#675d51" stroke-miterlimit="10" stroke-width="2.45"/>
        <path id="Path_12" d="M23.6,21.7H18.5L15.5,10A15.985,15.985,0,0,1,15,7.9c-.1-.8-.3-1.5-.4-2.3h0a20.415,20.415,0,0,1-.8,4.3L10.7,21.8H5.9L.5.3H4.9L7.8,12.1a15.525,15.525,0,0,1,.4,2.1,16.958,16.958,0,0,0,.4,2.2h0A15.525,15.525,0,0,1,9,14.3a15.985,15.985,0,0,1,.5-2.1L12.8.3h4.4l3.3,11.9c.2.6.3,1.2.5,2a16.958,16.958,0,0,1,.4,2.2h0a15.525,15.525,0,0,1,.4-2.1c.1-.7.3-1.3.4-2L25,.3h4.1Z" fill="#675d51"/>
        <path id="Path_13" d="M35.1,21.7V.3H46.7V3.8H39.2V9h7.1v3.4H39.2v5.8h7.5v3.5Z" fill="#675d51"/>
        <path id="Path_14" d="M68.8,15.1a10.038,10.038,0,0,1-.4,2.4A5.179,5.179,0,0,1,67,19.6a9.186,9.186,0,0,1-2.7,1.6,14.027,14.027,0,0,1-4.1.6H53.9V.4c.9,0,2-.1,3.3-.1,1.2,0,2.6-.1,3.9-.1a9,9,0,0,1,5.3,1.4,4.928,4.928,0,0,1,1.9,3.9,6.026,6.026,0,0,1-.8,2.9,5,5,0,0,1-2.4,1.9v.1a3.63,3.63,0,0,1,1.7.7A4.263,4.263,0,0,1,68,12.2a3.694,3.694,0,0,1,.7,1.4C68.7,14.1,68.8,14.6,68.8,15.1Zm-5.1-9a2.364,2.364,0,0,0-.8-1.9,3.7,3.7,0,0,0-2.7-.7H58V9.2h1.7a4.551,4.551,0,0,0,3-.8,2.515,2.515,0,0,0,1-2.3Zm.6,9A2.438,2.438,0,0,0,63.1,13a7.245,7.245,0,0,0-3.3-.7H58v6c.3,0,.7.1,1,.1h1.3a4.124,4.124,0,0,0,3-.9,2.591,2.591,0,0,0,1-2.4Z" fill="#675d51"/>
        <path id="Path_15" d="M98.6,21.7l-1.5-4.4H89l-1.5,4.4H83.3L90.8.3h4.7l7.6,21.4ZM93.9,8a8.8,8.8,0,0,1-.5-1.5c-.1-.5-.3-1-.4-1.4h0c-.1.5-.3.9-.4,1.4A8.8,8.8,0,0,1,92.1,8L90,14.1h6Z" fill="#675d51"/>
        <path id="Path_16" d="M120.9,21.7l-6.3-10.8c-.5-.8-.9-1.6-1.3-2.4s-.7-1.5-1-2.2a8.6,8.6,0,0,0,.1,1.6,13.4,13.4,0,0,1,.1,2V21.7h-4V.3h5.4l6,10.2c.5.8,1,1.7,1.4,2.5.4.9.9,1.7,1.2,2.5,0-.5-.1-1.2-.1-1.9a16.2,16.2,0,0,0-.1-2.2,17.634,17.634,0,0,1,0-2.3V.3h4V21.7h-5.4Z" fill="#675d51"/>
        <path id="Path_17" d="M152.2,10.7a13.717,13.717,0,0,1-.9,4.9,10.423,10.423,0,0,1-2.4,3.5,9.835,9.835,0,0,1-3.7,2.1,15.071,15.071,0,0,1-4.8.7h-3.1l-2.8-.1V.4c.9,0,1.9-.1,3.1-.1s2.5-.1,3.8-.1a17.4,17.4,0,0,1,4.5.6,8.582,8.582,0,0,1,3.4,1.8,8.338,8.338,0,0,1,2.2,3.3A12.711,12.711,0,0,1,152.2,10.7Zm-4.4.3a11,11,0,0,0-.4-3.1,5.667,5.667,0,0,0-1.2-2.3,4.124,4.124,0,0,0-2.1-1.4,8.4,8.4,0,0,0-3.1-.5h-1.4a3.75,3.75,0,0,0-1.1.1V18.2c.3,0,.6.1,1,.1s.8.1,1.2.1a8.628,8.628,0,0,0,2.8-.4,6.113,6.113,0,0,0,2.2-1.3,6.775,6.775,0,0,0,1.4-2.3,7.169,7.169,0,0,0,.7-3.4Z" fill="#675d51"/>
        <path id="Path_18" d="M189.2,21.7l-1.5-10.2c-.2-1-.3-1.9-.4-2.7L187,6.4h0a15.986,15.986,0,0,1-.5,2.1,21.717,21.717,0,0,1-.7,2.4l-3.4,10.7h-4.1l-3.3-10a27.584,27.584,0,0,1-.8-2.7c-.2-.9-.4-1.8-.6-2.6h0q-.15,1.5-.3,2.7a25.125,25.125,0,0,1-.4,2.7l-1.2,9.9h-4.2L170.8.2h4.8l3.6,11q.3.9.6,2.1l.6,2.4h0c.2-.8.3-1.6.5-2.3s.4-1.4.7-2.2l3.7-11h4.8l3.3,21.4Z" fill="#675d51"/>
        <path id="Path_19" d="M218.8,10.7a16.094,16.094,0,0,1-.8,4.8,13.4,13.4,0,0,1-2.2,3.6,9.111,9.111,0,0,1-3.3,2.2,11.5,11.5,0,0,1-4.1.8,10.6,10.6,0,0,1-4.3-.8,8.125,8.125,0,0,1-3-2.1,9.312,9.312,0,0,1-1.8-3.4,17.4,17.4,0,0,1-.6-4.5,12.57,12.57,0,0,1,.8-4.7A13.4,13.4,0,0,1,201.7,3,8.7,8.7,0,0,1,205.1.8a10.974,10.974,0,0,1,4-.8,12.718,12.718,0,0,1,3.9.6,7.894,7.894,0,0,1,3.1,2,9,9,0,0,1,2,3.4A14.874,14.874,0,0,1,218.8,10.7Zm-4.4.4A9.834,9.834,0,0,0,213,5.6a5,5,0,0,0-4.3-1.9,4.918,4.918,0,0,0-2.1.4,5.936,5.936,0,0,0-1.8,1.3,5.316,5.316,0,0,0-1.2,2.2,11.27,11.27,0,0,0-.5,3.2,16.279,16.279,0,0,0,.3,3.1,8.18,8.18,0,0,0,1,2.4,6.549,6.549,0,0,0,1.8,1.5,5.421,5.421,0,0,0,2.5.6,5.222,5.222,0,0,0,2.1-.4,5.863,5.863,0,0,0,1.9-1.3,6.538,6.538,0,0,0,1.3-2.3,12.423,12.423,0,0,0,.4-3.3Z" fill="#675d51"/>
        <path id="Path_20" d="M240.1,15.1a6.723,6.723,0,0,1-.4,2.4,5.179,5.179,0,0,1-1.4,2.1,9.186,9.186,0,0,1-2.7,1.6,14.027,14.027,0,0,1-4.1.6h-6.3V.4c.9,0,2-.1,3.2-.1s2.5-.1,3.9-.1a9,9,0,0,1,5.3,1.4,4.928,4.928,0,0,1,1.9,3.9,5.251,5.251,0,0,1-3.2,4.8v.1a3.63,3.63,0,0,1,1.7.7,4.263,4.263,0,0,1,1.2,1.1,3.694,3.694,0,0,1,.7,1.4,3.887,3.887,0,0,1,.2,1.5Zm-5-9a2.732,2.732,0,0,0-.8-1.9,3.7,3.7,0,0,0-2.7-.7h-2.3V9.2H231a4.831,4.831,0,0,0,3.1-.8,2.9,2.9,0,0,0,1-2.3Zm.6,9a2.438,2.438,0,0,0-1.2-2.1,7.246,7.246,0,0,0-3.3-.7h-1.8v6c.3,0,.6.1,1,.1h1.3a4.629,4.629,0,0,0,3-.9,3.148,3.148,0,0,0,1-2.4Z" fill="#675d51"/>
        <path id="Path_21" d="M247.1,21.7V.3h4.1V21.7h-4.1Z" fill="#675d51"/>
        <path id="Path_22" d="M259.4,21.7V.3h4.1V18.1h6.9v3.6Z" fill="#675d51"/>
        <path id="Path_23" d="M276.2,21.7V.3h11.6V3.8h-7.5V9h7.1v3.4h-7.1v5.8h7.5v3.5Z" fill="#675d51"/>
        <path id="Path_24" d="M19.7,48.7a13.717,13.717,0,0,1-.9,4.9,10.718,10.718,0,0,1-2.5,3.5,9.835,9.835,0,0,1-3.7,2.1,15.5,15.5,0,0,1-4.8.7H4.7c-1,0-1.9-.1-2.8-.1V38.4c.8,0,1.9-.1,3.1-.1s2.5-.1,3.8-.1a17.4,17.4,0,0,1,4.5.6,8.582,8.582,0,0,1,3.4,1.8,8.746,8.746,0,0,1,2.2,3.2A12.02,12.02,0,0,1,19.7,48.7Zm-4.4.3a11,11,0,0,0-.4-3.1,6.324,6.324,0,0,0-1.2-2.3,4.831,4.831,0,0,0-2-1.4,11.151,11.151,0,0,0-3.1-.5H7.2a4.869,4.869,0,0,0-1.2.1V56.2c.3,0,.6.1,1,.1s.8.1,1.2.1A9.034,9.034,0,0,0,11,56a6.113,6.113,0,0,0,2.2-1.3,6.776,6.776,0,0,0,1.4-2.3,7.973,7.973,0,0,0,.7-3.4Z" fill="#675d51"/>
        <path id="Path_25" d="M26.2,59.8V38.4H37.8v3.5H30.3V47h7.1v3.4H30.3v5.8h7.5v3.5Z" fill="#675d51"/>
        <path id="Path_26" d="M57.6,53.2A6.71,6.71,0,0,1,57,56a7.231,7.231,0,0,1-1.7,2.2,8.164,8.164,0,0,1-2.6,1.4,9.671,9.671,0,0,1-3.4.5,19.928,19.928,0,0,1-4.9-.6l.4-4a14.161,14.161,0,0,0,2.2.7,10.145,10.145,0,0,0,2.5.2,3.4,3.4,0,0,0,1.4-.2,3.7,3.7,0,0,0,1.1-.5,2.361,2.361,0,0,0,.8-.9,2.768,2.768,0,0,0,.3-1.3,1.99,1.99,0,0,0-.7-1.6,9.908,9.908,0,0,0-1.7-1.1c-.7-.3-1.4-.6-2.2-.9a15.054,15.054,0,0,1-2.2-1.1,6.865,6.865,0,0,1-1.7-1.7,5.942,5.942,0,0,1-.1-5.4,5.264,5.264,0,0,1,1.6-2,6.382,6.382,0,0,1,2.6-1.3,13.318,13.318,0,0,1,3.4-.5A12.1,12.1,0,0,1,54,38c.7.1,1.3.2,1.9.3L55.7,42a11.627,11.627,0,0,0-1.8-.4,11.076,11.076,0,0,0-1.9-.2,4.393,4.393,0,0,0-2.7.7,2.463,2.463,0,0,0-.9,1.9,1.683,1.683,0,0,0,.7,1.5,9.5,9.5,0,0,0,1.7,1c.7.3,1.4.6,2.2.9a9.409,9.409,0,0,1,2.2,1.2,7.28,7.28,0,0,1,1.7,1.8A5.547,5.547,0,0,1,57.6,53.2Z" fill="#675d51"/>
        <path id="Path_27" d="M64.1,59.8V38.4h4.1V59.8H64.1Z" fill="#675d51"/>
        <path id="Path_28" d="M89.4,59.7a24.5,24.5,0,0,1-3.8.4,13.666,13.666,0,0,1-4.5-.7,9.24,9.24,0,0,1-3.4-2.1A8.859,8.859,0,0,1,75.6,54a13.172,13.172,0,0,1-.8-4.4,13.886,13.886,0,0,1,.8-4.6A8.789,8.789,0,0,1,78,41.4a12.491,12.491,0,0,1,8.7-3.3,16.551,16.551,0,0,1,3.2.3,15.68,15.68,0,0,1,2.9.8L92,42.9a14.513,14.513,0,0,0-5.5-1,9.291,9.291,0,0,0-2.9.5,6.776,6.776,0,0,0-2.3,1.4,5.739,5.739,0,0,0-1.5,2.3,8.591,8.591,0,0,0-.5,3.2,7.453,7.453,0,0,0,1.8,5.3,6.551,6.551,0,0,0,5,1.9,9.034,9.034,0,0,0,2.8-.4V48.6H93V58.8A23.691,23.691,0,0,1,89.4,59.7Z" fill="#675d51"/>
        <path id="Path_29" d="M112.8,59.8,106.5,49c-.5-.8-.9-1.6-1.3-2.4s-.7-1.5-1-2.2a8.6,8.6,0,0,0,.1,1.6c.1.6,0,1.3.1,2a14.719,14.719,0,0,1,0,2.1v9.6h-4V38.4h5.4l6,10.2c.5.8,1,1.7,1.4,2.5.4.9.9,1.7,1.2,2.5,0-.5-.1-1.2-.1-1.9a16.2,16.2,0,0,0-.1-2.2V38.4h4V59.8h-5.4Z" fill="#675d51"/>
        <path id="Path_30" d="M148.8,59.8l-1.5-4.4h-8.1l-1.5,4.4h-4.2L141,38.4h4.7l7.6,21.4ZM144.2,46a8.8,8.8,0,0,1-.5-1.5c-.1-.5-.3-1-.4-1.4h0c-.1.5-.3.9-.4,1.4a8.8,8.8,0,0,1-.5,1.5l-2.1,6.1h6Z" fill="#675d51"/>
        <path id="Path_31" d="M171.2,59.8,164.9,49c-.5-.8-.9-1.6-1.3-2.4s-.7-1.5-1-2.2a8.6,8.6,0,0,0,.1,1.6,13.4,13.4,0,0,1,.1,2V59.7h-4V38.4h5.4l6,10.2c.5.8.9,1.7,1.4,2.5.4.9.9,1.7,1.3,2.5a10.889,10.889,0,0,1-.1-1.9,16.2,16.2,0,0,0-.1-2.2V38.4h4V59.8h-5.5Z" fill="#675d51"/>
        <path id="Path_32" d="M202.5,48.7a13.717,13.717,0,0,1-.9,4.9,10.423,10.423,0,0,1-2.4,3.5,9.835,9.835,0,0,1-3.7,2.1,15.5,15.5,0,0,1-4.8.7h-3.1c-1,0-1.9-.1-2.8-.1V38.4c.8,0,1.9-.1,3.1-.1s2.5-.1,3.8-.1a17.4,17.4,0,0,1,4.5.6,8.582,8.582,0,0,1,3.4,1.8,8.746,8.746,0,0,1,2.2,3.2A16.59,16.59,0,0,1,202.5,48.7Zm-4.4.3a11,11,0,0,0-.4-3.1,5.667,5.667,0,0,0-1.2-2.3,5.957,5.957,0,0,0-2.1-1.4,11.151,11.151,0,0,0-3.1-.5H190a3.75,3.75,0,0,0-1.1.1V56.2c.3,0,.6.1,1,.1s.8.1,1.2.1a9.034,9.034,0,0,0,2.8-.4,6.113,6.113,0,0,0,2.2-1.3,5.935,5.935,0,0,0,1.4-2.3,10.158,10.158,0,0,0,.6-3.4Z" fill="#675d51"/>
        <path id="Path_33" d="M236.8,48.7a13.717,13.717,0,0,1-.9,4.9,10.423,10.423,0,0,1-2.4,3.5,9.132,9.132,0,0,1-3.7,2.1,15.071,15.071,0,0,1-4.8.7h-3.1c-1,0-1.9-.1-2.8-.1V38.4c.9,0,1.9-.1,3.1-.1s2.5-.1,3.8-.1a17.4,17.4,0,0,1,4.5.6,8.582,8.582,0,0,1,3.4,1.8,8.746,8.746,0,0,1,2.2,3.2A11.913,11.913,0,0,1,236.8,48.7Zm-4.4.3a11,11,0,0,0-.4-3.1,5.667,5.667,0,0,0-1.2-2.3,5.957,5.957,0,0,0-2.1-1.4,11.151,11.151,0,0,0-3.1-.5h-1.4a3.75,3.75,0,0,0-1.1.1V56.2c.3,0,.6.1,1,.1s.8.1,1.2.1a8.627,8.627,0,0,0,2.8-.4,6.113,6.113,0,0,0,2.2-1.3,6.775,6.775,0,0,0,1.4-2.3,5.823,5.823,0,0,0,.7-3.4Z" fill="#675d51"/>
        <path id="Path_34" d="M243.5,59.8V38.4h11.6v3.5h-7.5V47h7.1v3.4h-7.1v5.8h7.5v3.5Z" fill="#675d51"/>
        <path id="Path_35" d="M272,59.8h-4.8l-7.4-21.4h4.5l4.2,12.5c.2.6.4,1.3.6,2l.6,2.1h.1c.2-.7.4-1.4.6-2.2s.5-1.5.7-2.2l4.2-12.3h4.2Z" fill="#675d51"/>
        <path id="Path_36" d="M285,59.8V38.4h11.6v3.5h-7.5V47h7.1v3.4h-7.1v5.8h7.5v3.5Z" fill="#675d51"/>
        <path id="Path_37" d="M303.8,59.8V38.4h4.1V56.2h7v3.6Z" fill="#675d51"/>
        <path id="Path_38" d="M338.9,48.8a16.094,16.094,0,0,1-.8,4.8,11.272,11.272,0,0,1-2.2,3.6,9.111,9.111,0,0,1-3.3,2.2,11.5,11.5,0,0,1-4.1.8,12.511,12.511,0,0,1-4.3-.7,8.125,8.125,0,0,1-3-2.1,11.118,11.118,0,0,1-1.8-3.4,17.4,17.4,0,0,1-.6-4.5,16.094,16.094,0,0,1,.8-4.8,11.272,11.272,0,0,1,2.2-3.6,9.111,9.111,0,0,1,3.3-2.2,11.5,11.5,0,0,1,4.1-.8,12.718,12.718,0,0,1,3.9.6,7.893,7.893,0,0,1,3.1,2,9,9,0,0,1,2,3.4A14.456,14.456,0,0,1,338.9,48.8Zm-4.4.3a8.992,8.992,0,0,0-1.5-5.5,4.937,4.937,0,0,0-4.2-1.9,7.117,7.117,0,0,0-2.1.4,5.936,5.936,0,0,0-1.8,1.3,5.316,5.316,0,0,0-1.2,2.2,11.27,11.27,0,0,0-.5,3.2,16.281,16.281,0,0,0,.3,3.1,6.715,6.715,0,0,0,1,2.3,5.171,5.171,0,0,0,1.8,1.5,5.421,5.421,0,0,0,2.5.6,5.222,5.222,0,0,0,2.1-.4,5.863,5.863,0,0,0,1.9-1.3,6.537,6.537,0,0,0,1.3-2.3,8.289,8.289,0,0,0,.4-3.2Z" fill="#675d51"/>
        <path id="Path_39" d="M359.3,44.9a7.173,7.173,0,0,1-.6,2.9,6.6,6.6,0,0,1-1.7,2.4,9.186,9.186,0,0,1-2.7,1.6,10.3,10.3,0,0,1-3.5.6h-.6a1.7,1.7,0,0,1-.7-.1v7.5h-4.1V38.4c.9,0,1.8-.1,2.7-.1h3a9.6,9.6,0,0,1,6,1.7A6.12,6.12,0,0,1,359.3,44.9Zm-4.3.3a3.541,3.541,0,0,0-1-2.6,4.162,4.162,0,0,0-3.1-1h-1.4v7.1a4.869,4.869,0,0,0,1.2.1,5,5,0,0,0,3.1-1A3.225,3.225,0,0,0,355,45.2Z" fill="#675d51"/>
        <path id="Path_40" d="M385.1,59.8l-1.5-10.2c-.2-1-.3-1.9-.4-2.7-.1-.9-.2-1.6-.3-2.4h-.1a15.984,15.984,0,0,1-.5,2.1,21.717,21.717,0,0,1-.7,2.4l-3.4,10.7h-4.1l-3.3-10A27.584,27.584,0,0,1,370,47c-.2-.9-.4-1.8-.6-2.6h-.1q-.15,1.5-.3,2.7a25.129,25.129,0,0,1-.4,2.7l-1.2,9.9h-4.2l3.3-21.4h4.8l3.6,11q.3.9.6,2.1l.6,2.4h0c.2-.8.4-1.6.6-2.3s.4-1.4.7-2.2l3.7-11h4.8l3.3,21.4Z" fill="#675d51"/>
        <path id="Path_41" d="M395.8,59.8V38.4h11.6v3.5h-7.5V47H407v3.4h-7.1v5.8h7.5v3.5Z" fill="#675d51"/>
        <path id="Path_42" d="M427,59.8,420.7,49c-.5-.8-.9-1.6-1.3-2.4s-.7-1.5-1.1-2.2c0,.5.1,1,.1,1.6a14.083,14.083,0,0,0,.1,2,14.718,14.718,0,0,1,0,2.1v9.6h-4V38.4H420l6,10.2c.5.8.9,1.7,1.4,2.5l1.2,2.5c0-.5-.1-1.2-.1-1.9s-.1-1.5-.1-2.2V38.4h4V59.8H427Z" fill="#675d51"/>
        <path id="Path_43" d="M447.6,41.9V59.8h-4.1V41.9H438V38.4h15.2v3.5Z" fill="#675d51"/>
      </g>
    </g>
  </g>
</svg>
