<?xml version="1.0" encoding="utf-8"?>
<!-- Generator: Adobe Illustrator 25.2.1, SVG Export Plug-In . SVG Version: 6.00 Build 0)  -->
<svg version="1.1" id="Layer_1" xmlns="http://www.w3.org/2000/svg" xmlns:xlink="http://www.w3.org/1999/xlink" x="0px" y="0px"
	 viewBox="0 0 492 233" style="enable-background:new 0 0 492 233;" xml:space="preserve">
<style type="text/css">
	.st0{fill:#FFFFFF;}
	.st1{fill:#FFFFFF;stroke:#FFFFFF;stroke-width:2.45;stroke-miterlimit:10;}
</style>
<g id="Layer_2_1_">
	<g id="Layer_2-2">
		<g id="Layer_1-2">
			<path id="Path_4" class="st0" d="M6.2,206.4v-7.6l7.5-0.8c1.7-0.2,1.9-0.6,1.9-2.4v-64.1c0-1.8-0.2-2.2-1.9-2.4l-7.5-0.8v-7.7h35
				v7.7l-9.8,1c-1.8,0.1-1.9,0.6-1.9,2.2v64.8H56c1.3,0,1.7-0.1,1.9-1.3l1.9-11.3h10v22.6L6.2,206.4z"/>
			<path id="Path_5" class="st0" d="M117.8,206.4l-1.2-7l-0.4-0.1c-5.5,5.6-13.1,8.7-20.9,8.5c-8.2,1.1-15.8-4.7-16.9-12.9
				c-0.2-1.3-0.2-2.6,0-3.9c0-11.9,7.3-17.5,21.8-18.7l15-1.2v-6c0-7.5-1.3-11.5-10.4-11.5c-6.5,0-10.9,0.5-10.9,8.7l-12.8-1.2
				C81.1,145.9,95,144,105,144c17.2,0,23.6,4.9,23.6,21.2v30.5c0,1.9,0.1,2.1,1.9,2.4l5.8,0.8v7.6L117.8,206.4z M115.3,179.8
				l-11.3,0.9c-8.9,0.8-11.6,3.3-11.6,9s2.7,7.6,7.6,7.6c5.8-0.4,11.3-2.9,15.3-7.1V179.8z"/>
			<path id="Path_6" class="st0" d="M180.6,206.4V199l5.9-0.7c1.7-0.2,1.9-1,1.9-2.4v-27.5c0-7.1-0.8-13-8.4-13
				c-5.9,0.4-11.5,2.6-16.2,6.2v34.1c0,1.9,0.1,2.1,1.9,2.4l6.3,0.8v7.6h-29.4v-7.7l5.7-0.7c1.7-0.2,1.9-0.6,1.9-2.4v-38.2
				c0.2-1.1-0.5-2.1-1.5-2.5l-6.5-2.2l1.2-7.6h17.5l1,6.5l0.5,0.1c6.4-4.8,14.2-7.6,22.2-7.8c12.8,0,17.6,8.1,17.6,21.7v30
				c0,1.9,0.1,2.1,1.9,2.4l6.5,0.8v7.6L180.6,206.4z"/>
			<path id="Path_7" class="st0" d="M266,154.5c2.9,3.4,4.5,7.7,4.5,12.2c0,13.7-10.9,21.3-24.8,21.3c-3.3,0.1-6.7-0.3-9.9-1.1
				l-5.5,9l14.6,0.7c21.1,1.1,31.2,2.1,31.2,16.5c0,12.6-10.9,19.9-31.5,19.9c-20.9,0-28.3-5.6-28.3-14.6c0.3-5.2,3-9.9,7.2-12.9
				c-3.2-1-5.4-3.9-5.5-7.3c0.1-2.6,1.2-5,3-6.8c2-2.2,4.4-5.1,6.5-7.3c-6.1-3.6-9.6-10.3-9.2-17.4c0-13.2,9.2-22.8,26.2-22.8
				c3.7-0.1,7.5,0.3,11.1,1.2h21.6v8.6L266,154.5z M232.8,208.1c-2.4,2.2-4,5.1-4.5,8.3c0,5.5,6.3,7.2,16.6,7.2
				c6,0,17.5-0.9,17.5-8.5c0-5.2-4.5-5.5-11.4-5.9L232.8,208.1z M245.2,153.6c-6.7-0.9-12.8,3.8-13.7,10.4c0,0,0,0,0,0.1
				c-0.1,0.8-0.1,1.7-0.1,2.5c0,6.8,3.7,11.9,13.4,11.9c6.6,0.8,12.7-3.9,13.5-10.5c0,0,0-0.1,0-0.1c0.1-0.5,0.1-1,0.1-1.5
				c0.5-6.5-4.3-12.2-10.8-12.7c0,0,0,0,0,0C246.8,153.5,246,153.5,245.2,153.6L245.2,153.6z"/>
			<path id="Path_8" class="st0" d="M320,206.4l-1.2-7l-0.4-0.1c-5.5,5.6-13.1,8.7-20.9,8.5c-8.2,1.1-15.8-4.7-16.9-12.9
				c-0.2-1.3-0.2-2.6,0-3.9c0-11.9,7.3-17.5,21.8-18.7l15-1.2v-6c0-7.5-1.3-11.5-10.4-11.5c-6.5,0-10.9,0.5-10.9,8.7l-12.8-1.2
				c0-15.2,13.9-17.1,23.9-17.1c17.2,0,23.6,4.9,23.6,21.2v30.5c0,1.9,0.1,2.1,1.9,2.4l5.8,0.8v7.6L320,206.4z M317.6,179.8
				l-11.3,0.9c-8.9,0.8-11.6,3.3-11.6,9s2.7,7.6,7.6,7.6c5.8-0.4,11.3-2.9,15.3-7.1V179.8z"/>
			<path id="Path_9" class="st0" d="M344.8,206.4v-7.7l5.7-0.7c1.7-0.2,1.9-0.6,1.9-2.4v-38.2c0.2-1.1-0.5-2.1-1.5-2.5l-6.5-2.2
				l1.2-7.6h17.7l1.3,8.6l0.4,0.1c3.9-5.9,10.3-9.7,17.4-10c3.1,0,6.2,0.4,9.2,1.1v19.4l-10.7-0.5l-1.4-7.4
				c-0.1-1.1-0.4-1.3-1.4-1.3c-4.6,0.7-8.8,2.8-12,6.1v34c0,1.9,0.2,2.2,2,2.4l11.1,0.9v7.6L344.8,206.4z"/>
			<path id="Path_10" class="st0" d="M435.1,206.4l-1.2-7l-0.4-0.1c-5.5,5.6-13.1,8.7-20.9,8.5c-8.2,1.1-15.8-4.7-16.9-12.9
				c-0.2-1.3-0.2-2.6,0-3.9c0-11.9,7.3-17.5,21.8-18.7l15-1.2v-6c0-7.5-1.3-11.5-10.4-11.5c-6.5,0-10.9,0.5-10.9,8.7l-12.8-1.2
				c0-15.2,13.9-17.1,23.9-17.1c17.2,0,23.6,4.9,23.6,21.2v30.5c0,1.9,0.1,2.1,1.9,2.4l5.8,0.8v7.6L435.1,206.4z M432.6,179.8
				l-11.3,0.9c-8.9,0.8-11.6,3.3-11.6,9s2.7,7.6,7.6,7.6c5.8-0.4,11.3-2.9,15.3-7.1V179.8z"/>
			<path id="Path_11" class="st0" d="M470.4,207.9c-5.8,0-8.8-2.7-8.8-8.2s3-8.2,8.8-8.2s8.6,2.8,8.6,8.2S476.1,207.9,470.4,207.9z"
				/>
			<line id="Line_12" class="st1" x1="0" y1="93.8" x2="492" y2="93.8"/>
			<path id="Path_12" class="st0" d="M23.9,21.7h-5.1l-3-11.7c-0.2-0.7-0.4-1.4-0.5-2.1c-0.1-0.8-0.3-1.5-0.4-2.3l0,0
				c-0.1,1.5-0.4,2.9-0.8,4.3L11,21.8H6.2L0.8,0.3h4.4l2.9,11.8c0.2,0.7,0.3,1.4,0.4,2.1c0.1,0.7,0.2,1.5,0.4,2.2l0,0
				C9,15.7,9.1,15,9.3,14.3c0.1-0.7,0.3-1.4,0.5-2.1l3.3-11.9h4.4l3.3,11.9c0.2,0.6,0.3,1.2,0.5,2c0.2,0.7,0.3,1.5,0.4,2.2l0,0
				c0.1-0.7,0.2-1.4,0.4-2.1c0.1-0.7,0.3-1.3,0.4-2l2.8-12h4.1L23.9,21.7z"/>
			<path id="Path_13" class="st0" d="M35.4,21.7V0.3H47v3.5h-7.5V9h7.1v3.4h-7.1v5.8H47v3.5H35.4z"/>
			<path id="Path_14" class="st0" d="M69.1,15.1c0,0.8-0.2,1.6-0.4,2.4c-0.3,0.8-0.8,1.5-1.4,2.1c-0.8,0.7-1.7,1.2-2.7,1.6
				c-1.3,0.4-2.7,0.6-4.1,0.6h-6.3V0.4c0.9,0,2-0.1,3.3-0.1s2.6-0.1,3.9-0.1c1.9-0.1,3.7,0.4,5.3,1.4c1.2,0.9,1.9,2.4,1.9,3.9
				c0,1-0.3,2-0.8,2.9c-0.6,0.9-1.4,1.5-2.4,1.9v0.1c0.6,0.1,1.2,0.3,1.7,0.7c0.5,0.3,0.9,0.7,1.2,1.1c0.3,0.4,0.6,0.9,0.7,1.4
				C69,14.1,69.1,14.6,69.1,15.1z M64,6.1c0-0.7-0.3-1.4-0.8-1.9c-0.8-0.6-1.7-0.8-2.7-0.7h-2.2v5.7H60c1.1,0.1,2.1-0.2,3-0.8
				C63.7,7.9,64.1,7,64,6.1z M64.6,15.1c0-0.9-0.5-1.7-1.2-2.1c-1-0.5-2.2-0.7-3.3-0.7h-1.8v6c0.3,0,0.7,0.1,1,0.1h1.3
				c1.1,0.1,2.2-0.2,3-0.9C64.3,16.9,64.7,16,64.6,15.1z"/>
			<path id="Path_15" class="st0" d="M98.9,21.7l-1.5-4.4h-8.1l-1.5,4.4h-4.2l7.5-21.4h4.7l7.6,21.4L98.9,21.7z M94.2,8
				c-0.2-0.5-0.4-1-0.5-1.5c-0.1-0.5-0.3-1-0.4-1.4l0,0C93.2,5.6,93,6,92.9,6.5c-0.1,0.5-0.3,1-0.5,1.5l-2.1,6.1h6L94.2,8z"/>
			<path id="Path_16" class="st0" d="M121.2,21.7l-6.3-10.8c-0.5-0.8-0.9-1.6-1.3-2.4s-0.7-1.5-1-2.2c0,0.5,0,1.1,0.1,1.6
				c0.1,0.7,0.1,1.3,0.1,2v11.8h-4V0.3h5.4l6,10.2c0.5,0.8,1,1.7,1.4,2.5s0.9,1.7,1.2,2.5c0-0.5-0.1-1.2-0.1-1.9
				c0-0.7,0-1.5-0.1-2.2c-0.1-0.8-0.1-1.5,0-2.3V0.3h4v21.4H121.2z"/>
			<path id="Path_17" class="st0" d="M152.5,10.7c0,1.7-0.3,3.3-0.9,4.9c-0.6,1.3-1.4,2.5-2.4,3.5c-1.1,1-2.3,1.7-3.7,2.1
				c-1.6,0.5-3.2,0.7-4.8,0.7h-3.1l-2.8-0.1V0.4c0.9,0,1.9-0.1,3.1-0.1s2.5-0.1,3.8-0.1c1.5,0,3,0.2,4.5,0.6c1.3,0.3,2.4,1,3.4,1.8
				c1,0.9,1.7,2,2.2,3.3C152.3,7.4,152.6,9.1,152.5,10.7z M148.1,11c0-1-0.1-2.1-0.4-3.1c-0.2-0.8-0.6-1.6-1.2-2.3
				c-0.5-0.7-1.3-1.2-2.1-1.4c-1-0.4-2-0.5-3.1-0.5h-1.4c-0.4,0-0.7,0-1.1,0.1v14.4c0.3,0,0.6,0.1,1,0.1s0.8,0.1,1.2,0.1
				c0.9,0,1.9-0.1,2.8-0.4c0.8-0.3,1.6-0.7,2.2-1.3c0.6-0.7,1.1-1.4,1.4-2.3C147.9,13.3,148.1,12.2,148.1,11L148.1,11z"/>
			<path id="Path_18" class="st0" d="M189.5,21.7L188,11.5c-0.2-1-0.3-1.9-0.4-2.7l-0.3-2.4l0,0c-0.1,0.7-0.3,1.4-0.5,2.1
				c-0.2,0.8-0.4,1.6-0.7,2.4l-3.4,10.7h-4.1l-3.3-10c-0.3-0.9-0.6-1.8-0.8-2.7c-0.2-0.9-0.4-1.8-0.6-2.6l0,0
				c-0.1,1-0.2,1.9-0.3,2.7c-0.1,0.9-0.2,1.8-0.4,2.7l-1.2,9.9h-4.2l3.3-21.4h4.8l3.6,11c0.2,0.6,0.4,1.3,0.6,2.1l0.6,2.4l0,0
				c0.2-0.8,0.3-1.6,0.5-2.3s0.4-1.4,0.7-2.2l3.7-11h4.8l3.3,21.4L189.5,21.7z"/>
			<path id="Path_19" class="st0" d="M219.1,10.7c0,1.6-0.3,3.2-0.8,4.8c-0.5,1.3-1.3,2.5-2.2,3.6c-0.9,1-2.1,1.7-3.3,2.2
				c-1.3,0.5-2.7,0.8-4.1,0.8c-1.5,0-2.9-0.2-4.3-0.8c-1.1-0.5-2.2-1.2-3-2.1c-0.8-1-1.4-2.2-1.8-3.4c-0.4-1.5-0.6-3-0.6-4.5
				c0-1.6,0.2-3.2,0.8-4.7c0.5-1.3,1.3-2.5,2.2-3.6c0.9-1,2.1-1.7,3.4-2.2c1.3-0.5,2.6-0.8,4-0.8c1.3,0,2.6,0.2,3.9,0.6
				c1.2,0.4,2.2,1.1,3.1,2c0.9,1,1.6,2.1,2,3.4C218.9,7.5,219.1,9.1,219.1,10.7z M214.7,11.1c0.1-1.9-0.4-3.8-1.4-5.5
				c-1-1.3-2.6-2-4.3-1.9c-0.7,0-1.4,0.1-2.1,0.4c-0.7,0.3-1.3,0.8-1.8,1.3c-0.6,0.6-1,1.4-1.2,2.2c-0.3,1-0.5,2.1-0.5,3.2
				c0,1,0.1,2.1,0.3,3.1c0.2,0.8,0.5,1.7,1,2.4c0.5,0.6,1.1,1.1,1.8,1.5c0.8,0.4,1.6,0.6,2.5,0.6c0.7,0,1.4-0.1,2.1-0.4
				c0.7-0.3,1.4-0.7,1.9-1.3c0.6-0.7,1-1.5,1.3-2.3C214.6,13.3,214.7,12.2,214.7,11.1L214.7,11.1z"/>
			<path id="Path_20" class="st0" d="M240.4,15.1c0,0.8-0.1,1.6-0.4,2.4c-0.3,0.8-0.8,1.5-1.4,2.1c-0.8,0.7-1.7,1.2-2.7,1.6
				c-1.3,0.4-2.7,0.6-4.1,0.6h-6.3V0.4c0.9,0,2-0.1,3.2-0.1s2.5-0.1,3.9-0.1c1.9-0.1,3.7,0.4,5.3,1.4c1.2,0.9,1.9,2.4,1.9,3.9
				c0,2.1-1.3,4-3.2,4.8v0.1c0.6,0.1,1.2,0.3,1.7,0.7c0.5,0.3,0.9,0.7,1.2,1.1c0.3,0.4,0.6,0.9,0.7,1.4
				C240.4,14.1,240.4,14.6,240.4,15.1L240.4,15.1z M235.4,6.1c0-0.7-0.3-1.4-0.8-1.9c-0.8-0.6-1.7-0.8-2.7-0.7h-2.3v5.7h1.7
				c1.1,0.1,2.2-0.2,3.1-0.8C235.1,7.8,235.4,7,235.4,6.1z M236,15.1c0-0.9-0.5-1.7-1.2-2.1c-1-0.5-2.2-0.7-3.3-0.7h-1.8v6
				c0.3,0,0.6,0.1,1,0.1h1.3c1.1,0.1,2.1-0.3,3-0.9C235.7,16.9,236,16,236,15.1z"/>
			<path id="Path_21" class="st0" d="M247.4,21.7V0.3h4.1v21.4H247.4z"/>
			<path id="Path_22" class="st0" d="M259.7,21.7V0.3h4.1v17.8h6.9v3.6H259.7z"/>
			<path id="Path_23" class="st0" d="M276.5,21.7V0.3h11.6v3.5h-7.5V9h7.1v3.4h-7.1v5.8h7.5v3.5H276.5z"/>
			<path id="Path_24" class="st0" d="M20,48.7c0,1.7-0.3,3.3-0.9,4.9c-0.6,1.3-1.4,2.5-2.5,3.5c-1.1,1-2.3,1.7-3.7,2.1
				c-1.6,0.5-3.2,0.7-4.8,0.7H5c-1,0-1.9-0.1-2.8-0.1V38.4c0.8,0,1.9-0.1,3.1-0.1s2.5-0.1,3.8-0.1c1.5,0,3,0.2,4.5,0.6
				c1.3,0.3,2.4,1,3.4,1.8c1,0.9,1.7,2,2.2,3.2C19.8,45.4,20.1,47,20,48.7z M15.6,49c0-1-0.1-2.1-0.4-3.1c-0.2-0.8-0.6-1.6-1.2-2.3
				c-0.5-0.6-1.2-1.1-2-1.4c-1-0.3-2-0.5-3.1-0.5H7.5c-0.4,0-0.8,0-1.2,0.1v14.4c0.3,0,0.6,0.1,1,0.1s0.8,0.1,1.2,0.1
				c0.9,0,1.9-0.1,2.8-0.4c0.8-0.3,1.6-0.7,2.2-1.3c0.6-0.7,1.1-1.4,1.4-2.3C15.4,51.3,15.6,50.2,15.6,49z"/>
			<path id="Path_25" class="st0" d="M26.5,59.8V38.4h11.6v3.5h-7.5V47h7.1v3.4h-7.1v5.8h7.5v3.5L26.5,59.8z"/>
			<path id="Path_26" class="st0" d="M57.9,53.2c0,1-0.2,1.9-0.6,2.8c-0.4,0.8-1,1.6-1.7,2.2c-0.8,0.6-1.7,1.1-2.6,1.4
				c-1.1,0.4-2.2,0.5-3.4,0.5c-1.7,0-3.3-0.2-4.9-0.6l0.4-4c0.7,0.3,1.4,0.5,2.2,0.7c0.8,0.2,1.7,0.2,2.5,0.2c0.5,0,1,0,1.4-0.2
				c0.4-0.1,0.8-0.3,1.1-0.5c0.3-0.2,0.6-0.5,0.8-0.9c0.2-0.4,0.3-0.8,0.3-1.3c0-0.6-0.2-1.2-0.7-1.6c-0.5-0.4-1.1-0.8-1.7-1.1
				c-0.7-0.3-1.4-0.6-2.2-0.9c-0.8-0.3-1.5-0.7-2.2-1.1c-0.7-0.5-1.2-1-1.7-1.7c-0.9-1.7-0.9-3.7-0.1-5.4c0.4-0.8,0.9-1.5,1.6-2
				c0.8-0.6,1.6-1.1,2.6-1.3c1.1-0.3,2.2-0.5,3.4-0.5c0.6,0,1.3,0,1.9,0.1c0.7,0.1,1.3,0.2,1.9,0.3L56,42c-0.6-0.2-1.2-0.3-1.8-0.4
				c-0.6-0.1-1.3-0.2-1.9-0.2c-1-0.1-1.9,0.2-2.7,0.7c-0.6,0.5-0.9,1.2-0.9,1.9c0,0.6,0.2,1.2,0.7,1.5c0.5,0.4,1.1,0.7,1.7,1
				c0.7,0.3,1.4,0.6,2.2,0.9c0.8,0.3,1.5,0.7,2.2,1.2c0.7,0.5,1.2,1.1,1.7,1.8C57.7,51.3,57.9,52.2,57.9,53.2z"/>
			<path id="Path_27" class="st0" d="M64.4,59.8V38.4h4.1v21.4H64.4z"/>
			<path id="Path_28" class="st0" d="M89.7,59.7c-1.3,0.2-2.5,0.4-3.8,0.4c-1.5,0-3-0.2-4.5-0.7C80.1,59,79,58.2,78,57.3
				c-0.9-0.9-1.7-2.1-2.1-3.3c-0.5-1.4-0.8-2.9-0.8-4.4c0-1.6,0.3-3.1,0.8-4.6c0.5-1.4,1.3-2.6,2.4-3.6c2.4-2.2,5.5-3.4,8.7-3.3
				c1.1,0,2.1,0.1,3.2,0.3c1,0.2,2,0.4,2.9,0.8l-0.8,3.7c-1.8-0.7-3.6-1-5.5-1c-1,0-2,0.2-2.9,0.5c-0.9,0.3-1.6,0.8-2.3,1.4
				c-0.7,0.6-1.2,1.4-1.5,2.3c-0.4,1-0.5,2.1-0.5,3.2c-0.1,1.9,0.5,3.8,1.8,5.3c1.3,1.3,3.1,2,5,1.9c0.9,0,1.9-0.1,2.8-0.4v-7.5h4.1
				v10.2C92.1,59.2,90.9,59.5,89.7,59.7z"/>
			<path id="Path_29" class="st0" d="M113.1,59.8L106.8,49c-0.5-0.8-0.9-1.6-1.3-2.4s-0.7-1.5-1-2.2c0,0.5,0,1.1,0.1,1.6
				c0.1,0.6,0,1.3,0.1,2c0,0.7,0,1.4,0,2.1v9.6h-4V38.4h5.4l6,10.2c0.5,0.8,1,1.7,1.4,2.5s0.9,1.7,1.2,2.5c0-0.5-0.1-1.2-0.1-1.9
				c0-0.7,0-1.5-0.1-2.2V38.4h4v21.4H113.1z"/>
			<path id="Path_30" class="st0" d="M149.1,59.8l-1.5-4.4h-8.1l-1.5,4.4h-4.2l7.5-21.4h4.7l7.6,21.4L149.1,59.8z M144.5,46
				c-0.2-0.5-0.4-1-0.5-1.5c-0.1-0.5-0.3-1-0.4-1.4l0,0c-0.1,0.5-0.3,0.9-0.4,1.4c-0.1,0.5-0.3,1-0.5,1.5l-2.1,6.1h6L144.5,46z"/>
			<path id="Path_31" class="st0" d="M171.5,59.8L165.2,49c-0.5-0.8-0.9-1.6-1.3-2.4s-0.7-1.5-1-2.2c0,0.5,0,1.1,0.1,1.6
				c0.1,0.7,0.1,1.3,0.1,2v11.7h-4V38.4h5.4l6,10.2c0.5,0.8,0.9,1.7,1.4,2.5s0.9,1.7,1.3,2.5c-0.1-0.6-0.1-1.3-0.1-1.9
				c0-0.7,0-1.5-0.1-2.2V38.4h4v21.4H171.5z"/>
			<path id="Path_32" class="st0" d="M202.8,48.7c0,1.7-0.3,3.3-0.9,4.9c-0.6,1.3-1.4,2.5-2.4,3.5c-1.1,1-2.3,1.7-3.7,2.1
				c-1.6,0.5-3.2,0.7-4.8,0.7h-3.1c-1,0-1.9-0.1-2.8-0.1V38.4c0.8,0,1.9-0.1,3.1-0.1s2.5-0.1,3.8-0.1c1.5,0,3,0.2,4.5,0.6
				c1.3,0.3,2.4,1,3.4,1.8c1,0.9,1.7,2,2.2,3.2C202.6,45.4,202.8,47,202.8,48.7z M198.4,49c0-1-0.1-2.1-0.4-3.1
				c-0.2-0.8-0.6-1.6-1.2-2.3c-0.6-0.6-1.3-1.1-2.1-1.4c-1-0.3-2-0.5-3.1-0.5h-1.3c-0.4,0-0.7,0-1.1,0.1v14.4c0.3,0,0.6,0.1,1,0.1
				s0.8,0.1,1.2,0.1c0.9,0,1.9-0.1,2.8-0.4c0.8-0.3,1.6-0.7,2.2-1.3c0.6-0.6,1.1-1.4,1.4-2.3C198.2,51.3,198.4,50.2,198.4,49
				L198.4,49z"/>
			<path id="Path_33" class="st0" d="M237.1,48.7c0,1.7-0.3,3.3-0.9,4.9c-0.6,1.3-1.4,2.5-2.4,3.5c-1.1,1-2.3,1.7-3.7,2.1
				c-1.6,0.5-3.2,0.7-4.8,0.7h-3.1c-1,0-1.9-0.1-2.8-0.1V38.4c0.9,0,1.9-0.1,3.1-0.1s2.5-0.1,3.8-0.1c1.5,0,3,0.2,4.5,0.6
				c1.3,0.3,2.4,1,3.4,1.8c1,0.9,1.7,2,2.2,3.2C237,45.4,237.2,47,237.1,48.7z M232.7,49c0-1-0.1-2.1-0.4-3.1
				c-0.2-0.8-0.6-1.6-1.2-2.3c-0.6-0.6-1.3-1.1-2.1-1.4c-1-0.3-2-0.5-3.1-0.5h-1.4c-0.4,0-0.7,0-1.1,0.1v14.4c0.3,0,0.6,0.1,1,0.1
				s0.8,0.1,1.2,0.1c0.9,0,1.9-0.1,2.8-0.4c0.8-0.3,1.6-0.7,2.2-1.3c0.6-0.7,1.1-1.4,1.4-2.3C232.6,51.4,232.8,50.2,232.7,49
				L232.7,49z"/>
			<path id="Path_34" class="st0" d="M243.8,59.8V38.4h11.6v3.5h-7.5V47h7.1v3.4h-7.1v5.8h7.5v3.5L243.8,59.8z"/>
			<path id="Path_35" class="st0" d="M272.3,59.8h-4.8l-7.4-21.4h4.5l4.2,12.5c0.2,0.6,0.4,1.3,0.6,2L270,55h0.1
				c0.2-0.7,0.4-1.4,0.6-2.2s0.5-1.5,0.7-2.2l4.2-12.3h4.2L272.3,59.8z"/>
			<path id="Path_36" class="st0" d="M285.3,59.8V38.4h11.6v3.5h-7.5V47h7.1v3.4h-7.1v5.8h7.5v3.5L285.3,59.8z"/>
			<path id="Path_37" class="st0" d="M304.1,59.8V38.4h4.1v17.8h7v3.6H304.1z"/>
			<path id="Path_38" class="st0" d="M339.2,48.8c0,1.6-0.3,3.2-0.8,4.8c-0.5,1.3-1.2,2.5-2.2,3.6c-0.9,1-2.1,1.7-3.3,2.2
				c-1.3,0.5-2.7,0.8-4.1,0.8c-1.5,0-2.9-0.2-4.3-0.7c-1.1-0.5-2.2-1.2-3-2.1c-0.8-1-1.4-2.2-1.8-3.4c-0.4-1.5-0.6-3-0.6-4.5
				c0-1.6,0.3-3.2,0.8-4.8c0.5-1.3,1.2-2.5,2.2-3.6c0.9-1,2.1-1.7,3.3-2.2c1.3-0.5,2.7-0.8,4.1-0.8c1.3,0,2.6,0.2,3.9,0.6
				c1.2,0.4,2.2,1.1,3.1,2c0.9,1,1.6,2.1,2,3.4C339,45.6,339.2,47.2,339.2,48.8z M334.8,49.1c0.1-1.9-0.4-3.9-1.5-5.5
				c-1-1.3-2.6-2-4.2-1.9c-0.7,0-1.4,0.2-2.1,0.4c-0.7,0.3-1.3,0.8-1.8,1.3c-0.6,0.6-1,1.4-1.2,2.2c-0.3,1-0.5,2.1-0.5,3.2
				c0,1,0.1,2.1,0.3,3.1c0.2,0.8,0.5,1.6,1,2.3c0.5,0.6,1.1,1.1,1.8,1.5c0.8,0.4,1.6,0.6,2.5,0.6c0.7,0,1.4-0.1,2.1-0.4
				c0.7-0.3,1.4-0.7,1.9-1.3c0.6-0.7,1-1.5,1.3-2.3C334.7,51.3,334.9,50.2,334.8,49.1L334.8,49.1z"/>
			<path id="Path_39" class="st0" d="M359.6,44.9c0,1-0.2,2-0.6,2.9c-0.4,0.9-1,1.7-1.7,2.4c-0.8,0.7-1.7,1.2-2.7,1.6
				c-1.1,0.4-2.3,0.6-3.5,0.6h-0.6c-0.2,0-0.5,0-0.7-0.1v7.5h-4.1V38.4c0.9,0,1.8-0.1,2.7-0.1h3c2.1-0.1,4.2,0.5,6,1.7
				C358.8,41.2,359.7,43,359.6,44.9z M355.3,45.2c0-1-0.3-1.9-1-2.6c-0.9-0.7-2-1.1-3.1-1h-1.4v7.1c0.4,0.1,0.8,0.1,1.2,0.1
				c1.1,0,2.2-0.3,3.1-1C354.9,47.2,355.3,46.2,355.3,45.2z"/>
			<path id="Path_40" class="st0" d="M385.4,59.8l-1.5-10.2c-0.2-1-0.3-1.9-0.4-2.7s-0.2-1.6-0.3-2.4h-0.1c-0.1,0.7-0.3,1.4-0.5,2.1
				c-0.2,0.8-0.4,1.6-0.7,2.4l-3.4,10.7h-4.1l-3.3-10c-0.3-0.9-0.6-1.8-0.8-2.7c-0.2-0.9-0.4-1.8-0.6-2.6h-0.1
				c-0.1,1-0.2,1.9-0.3,2.7c-0.1,0.9-0.2,1.8-0.4,2.7l-1.2,9.9h-4.2l3.3-21.4h4.8l3.6,11c0.2,0.6,0.4,1.3,0.6,2.1l0.6,2.4l0,0
				c0.2-0.8,0.4-1.6,0.6-2.3s0.4-1.4,0.7-2.2l3.7-11h4.8l3.3,21.4L385.4,59.8z"/>
			<path id="Path_41" class="st0" d="M396.1,59.8V38.4h11.6v3.5h-7.5V47h7.1v3.4h-7.1v5.8h7.5v3.5L396.1,59.8z"/>
			<path id="Path_42" class="st0" d="M427.3,59.8L421,49c-0.5-0.8-0.9-1.6-1.3-2.4s-0.7-1.5-1.1-2.2c0,0.5,0.1,1,0.1,1.6
				c0,0.7,0,1.3,0.1,2c0,0.7,0,1.4,0,2.1v9.6h-4V38.4h5.5l6,10.2c0.5,0.8,0.9,1.7,1.4,2.5l1.2,2.5c0-0.5-0.1-1.2-0.1-1.9
				s-0.1-1.5-0.1-2.2V38.4h4v21.4H427.3z"/>
			<path id="Path_43" class="st0" d="M447.9,41.9v17.9h-4.1V41.9h-5.5v-3.5h15.2v3.5H447.9z"/>
		</g>
	</g>
</g>
</svg>
