<svg width="41" height="41" viewBox="0 0 41 41" fill="none" xmlns="http://www.w3.org/2000/svg">
<path d="M6.41437 0.697266C3.28092 0.697266 0.733337 3.24485 0.733337 6.3783V34.7834C0.733337 37.9169 3.28092 40.4645 6.41437 40.4645H15.1312V27.5224H10.4443V20.5809H15.1312V17.5895C15.1312 9.85793 18.6286 6.27178 26.227 6.27178C27.665 6.27178 30.1504 6.55583 31.1712 6.83988V13.1245C30.6386 13.0713 29.7066 13.0358 28.5438 13.0358C24.8156 13.0358 23.3776 14.4471 23.3776 18.1132V20.5809H30.7984L29.5202 27.5224H23.3687V40.4645H34.8195C37.953 40.4645 40.5005 37.9169 40.5005 34.7834V6.3783C40.5005 3.24485 37.953 0.697266 34.8195 0.697266H6.41437Z" fill="#F15A22"/>
</svg>
