<svg id="Layer_2" data-name="Layer 2" xmlns="http://www.w3.org/2000/svg" width="386.839" height="761.094" viewBox="0 0 386.839 761.094">
  <g id="Layer_2-2" data-name="Layer 2" transform="translate(0 0)">
    <path id="Path_342" data-name="Path 342" d="M54.44,471c-.838,2.126-6.377,14.444-5.4,17.268,1.784,5.1,29.013,13.777,30.75,13.032s3.506-3.1,2.684-4.251-10.535-7.432-11.574-8.983-.946-7.6.931-10.147" transform="translate(26.992 259.749)" fill="#1f161e"/>
    <path id="Path_343" data-name="Path 343" d="M149.689,194.55c6.889,6.206,106.695,94.64,106.695,141.106,0,14.056-28.392,220.076-31.588,224.265H200.127s-10.86-171.639-2.219-205.182c-6.408-2.715-65.162-23.179-91.227-45.117S99.266,203.269,149.689,194.55Z" transform="translate(52.37 107.294)" fill="#1f161e"/>
    <path id="Path_344" data-name="Path 344" d="M175.065,195.394c7.757,1.365-99.5,436.429-99.5,436.429H48.93S59.046,220.047,64.848,200C92.48,191.686,154.2,191.686,175.065,195.394Z" transform="translate(26.994 106.45)" fill="#969faa"/>
    <path id="Path_345" data-name="Path 345" d="M59.115,123.369c28.423-20.045,125.669-20.045,226.422-16.027,11.915.481,45.722-71.073,60.135-81.251,15.872-11.2,41.161-1.086,41.161,4.872,0,13-18.028,13.312-21.845,17.516s-37.918,104.305-66.713,119.044c-9.309,4.779-78.163,3.2-82.973,9.417S206.086,286.367,202.067,290.2s-99.2,7.013-110.155,4.654c-.605-8.021-13.42-74.548-16.632-79.761-1.769-.155-27.383,42.79-27.368,48.2,0,7.137,43.829,66.931,62.2,77.17,4.763,2.637,4.065,10.147,3.2,11.977s-7.432,10.86-11.527,10.86S2.16,305.946,0,262.722C-.57,251.04,22.485,149.279,59.115,123.369Z" transform="translate(0.007 11.614)" fill="#c36448"/>
    <path id="Path_346" data-name="Path 346" d="M164.924,428.36c0,2.281-.776,15.779,1.164,18.059,3.491,4.111,32.007,2.467,33.357,1.148s2.188-4.127.993-4.934-12.5-3.211-13.963-4.282-3.6-6.764-2.777-9.805" transform="translate(90.877 236.234)" fill="#1f161e"/>
    <path id="Path_347" data-name="Path 347" d="M105.91,97.4c.527,6.113-33.046,9.433-33.6,2.87L68.83,59.4l33.6-2.855Z" transform="translate(37.968 31.191)" fill="#f8cdba"/>
    <path id="Path_348" data-name="Path 348" d="M70.881,82.915c-.31-3.63,6.935-16.865,13.513-15.3-8.13-2.126-12.862-11.31-15.515-9.107Z" transform="translate(37.996 32.085)"/>
    <circle id="Ellipse_190" data-name="Ellipse 190" cx="43.814" cy="43.814" r="43.814" transform="translate(92.152 14.217)" fill="#f8cdba"/>
    <ellipse id="Ellipse_191" data-name="Ellipse 191" cx="7.307" cy="3.801" rx="7.307" ry="3.801" transform="matrix(0.996, -0.085, 0.085, 0.996, 173.014, 56.953)" fill="#fa9e9f"/>
    <ellipse id="Ellipse_192" data-name="Ellipse 192" cx="7.307" cy="3.801" rx="7.307" ry="3.801" transform="matrix(0.996, -0.085, 0.085, 0.996, 127.214, 60.858)" fill="#fa9e9f"/>
    <path id="Path_349" data-name="Path 349" d="M104.52,34.66c1.551,1.831,9.216,9.386,2.11,13.327" transform="translate(57.65 19.119)" fill="none" stroke="#1f161e" stroke-linecap="round" stroke-miterlimit="10" stroke-width="1.08"/>
    <path id="Path_350" data-name="Path 350" d="M99.7,51.816c-2.188.109-5.787-2.25-7.757-4.546" transform="translate(50.713 26.073)" fill="none" stroke="#1f161e" stroke-linecap="round" stroke-miterlimit="10" stroke-width="1.08"/>
    <path id="Path_351" data-name="Path 351" d="M61.32,36.136C60.032,20.978,80.2,7.9,94.909,6.658c23.4-2,36.506-1.474,49.337-5.709,18.369-6.051,18.028,18.618,18.276,21.426.993,11.807-2.684,19.5-15.515,22.481a40.338,40.338,0,0,0-5.539-11.434,16.461,16.461,0,0,0-11.295.76c-3.212,1.443-29.8,16.849-50.3,18.618-2.4,4.049-6.408,28.051-3.786,37.809-5.989.853-18.711-17.733-20.169-27.926A22.512,22.512,0,0,1,62.747,43.6C62.344,41.457,61.429,37.33,61.32,36.136Z" transform="translate(30.755 0.003)"/>
    <ellipse id="Ellipse_193" data-name="Ellipse 193" cx="9.65" cy="9.65" rx="9.65" ry="9.65" transform="translate(99.879 52.724)" fill="#f8cdba"/>
    <path id="Path_352" data-name="Path 352" d="M110.029,276.812c-18.369-10.24-62.183-70.033-62.2-77.17,0-3.475,10.5-22.357,18.525-35.436L15.032,136.45C5.134,165.928-.281,193.358.014,199.083,2.155,242.307,97.6,299.572,101.7,299.572s10.659-8.952,11.527-10.86S114.807,279.449,110.029,276.812Z" transform="translate(0.012 75.254)" fill="#f8cdba"/>
    <path id="Path_353" data-name="Path 353" d="M254.206,26.132c-14.413,10.178-48.22,81.7-60.2,81.251-20.278-.807-8.6-.4-28.051-.745l-.109,64.495c22.574,0,34.458-.295,40.881-3.568,28.811-14.739,62.928-114.809,66.713-119.044S295.289,44,295.289,31C295.367,25.046,270.031,14.93,254.206,26.132Z" transform="translate(91.472 11.636)" fill="#f8cdba"/>
  </g>
</svg>
