<svg id="Layer_2" data-name="Layer 2" xmlns="http://www.w3.org/2000/svg" width="289.836" height="767.634" viewBox="0 0 289.836 767.634">
  <g id="Vector" transform="translate(0 0)">
    <path id="Path_354" data-name="Path 354" d="M135.886,435.82c.356,2.764,3.239,18.875,1.238,21.894-3.6,5.478-38.157,7.631-39.972,6.224s-3.222-4.63-1.9-5.783,14.584-5.664,16.263-7.19,3.392-8.649,1.916-12.193" transform="translate(65.916 303.278)" fill="#1f161e"/>
    <path id="Path_355" data-name="Path 355" d="M41.156,423.24c.356,2.747,3.222,18.875,1.238,21.894-3.6,5.461-38.157,7.614-39.972,6.224s-3.222-4.63-1.9-5.783,14.584-5.681,16.263-7.207,3.392-8.649,1.916-12.176" transform="translate(-0.003 294.524)" fill="#1f161e"/>
    <path id="Path_356" data-name="Path 356" d="M92.553,181.7c-2.527,7.6-43.7,235.929-46.3,248.309S4.131,598.049,7.556,603.2,35.08,615.246,41.1,611.8,152.044,374.381,159.811,345.212s0-181.712,0-181.712Z" transform="translate(5.106 113.779)" fill="#1f161e"/>
    <path id="Path_357" data-name="Path 357" d="M76.11,180.341c1.594,12.5,25.743,218.564,32.849,251.124s.594,189.937,5.851,192.4c6.783,5.6,42.024,5.6,42.024,5.6,6.393-5.6,29-433.837,29-433.837S129.666,145.185,76.11,180.341Z" transform="translate(52.957 116.831)" fill="#fadb93"/>
    <path id="Path_358" data-name="Path 358" d="M88.34,89.392c0,4.409,24.319,4.664,24.3,0V59.85H88.34Z" transform="translate(61.468 41.652)" fill="#f8cdba"/>
    <path id="Path_359" data-name="Path 359" d="M107.827,77.562c0-2.629-7.988-13.855-12.617-12.329,5.715-2.035,10.464-6.783,12.566-5.308Z" transform="translate(66.248 41.509)" fill="#1f161e"/>
    <ellipse id="Ellipse_194" data-name="Ellipse 194" cx="31.56" cy="31.56" rx="31.56" ry="31.56" transform="translate(118.943 50.032)" fill="#f8cdba"/>
    <ellipse id="Ellipse_195" data-name="Ellipse 195" cx="5.248" cy="2.734" rx="5.248" ry="2.734" transform="translate(115.017 89.409) rotate(-5.768)" fill="#fa9e9f"/>
    <ellipse id="Ellipse_196" data-name="Ellipse 196" cx="5.274" cy="2.747" rx="5.274" ry="2.747" transform="translate(148.781 86.002) rotate(-5.93)" fill="#fa9e9f"/>
    <path id="Path_360" data-name="Path 360" d="M79.791,49.9c-.848,1.492-5.257,7.886.288,9.717" transform="translate(53.804 34.728)" fill="none" stroke="#1f161e" stroke-linecap="round" stroke-miterlimit="10" stroke-width="0.69"/>
    <path id="Path_361" data-name="Path 361" d="M85.6,60.747c1.56-.2,3.8-2.357,4.9-4.257" transform="translate(59.561 39.314)" fill="none" stroke="#1f161e" stroke-linecap="round" stroke-miterlimit="10" stroke-width="0.69"/>
    <ellipse id="Ellipse_197" data-name="Ellipse 197" cx="6.953" cy="6.953" rx="6.953" ry="6.953" transform="translate(169.073 70.722)" fill="#f8cdba"/>
    <path id="Path_362" data-name="Path 362" d="M126.845,74.311c0,9.242,10.175,15.263,13.669,15.263a3.816,3.816,0,0,0,4.324-3.968c0-3.867-2.289-7.19-7.072-11.379.831-1.441,7.072-9.056,7.072-19.791,0-11.362-6.97-20.876-11.634-20.876a9.039,9.039,0,0,0-8.276,7.326c0-15.873-16.959-27.236-27.134-27.236-9.429,0-11.04,4.1-11.04,7.445,0,7.292,5.749,15.11,7.92,16.959-5.274-3.884-13.567-7.8-20.639-7.8-4.477,0-10.175,1.272-10.175,7.445,0,11.311,10.6,17.857,14.144,19.689a31.9,31.9,0,0,1,5.088-7.241c-.644,2.137,1.967,6.02,6.97,6.9C92.927,57.675,126.845,53.1,126.845,74.311Z" transform="translate(44.433 9.503)" fill="#1f161e"/>
    <path id="Path_363" data-name="Path 363" d="M56.28,34.937A152,152,0,0,1,40.034,28.7C37.677,27.305,47.8,10.262,52.5,5.327S66.9-2.135,71.967,2.274,73.9,17.537,56.28,34.937Z" transform="translate(27.609 0.002)" fill="#f8cdba"/>
    <path id="Path_364" data-name="Path 364" d="M222.364,116.875c31.085,17.739,67.275,123.273,67.275,131.362S223.5,377.445,219.532,377.445c-3.392-3.612-17.756-20.724-17.756-20.724,3.6-5.512,27.134-58.524,27.965-60.746-5.732.95-126.58,4.935-136.755.475s-6.207-119.1-8.9-122.917S9.193,164.393.29,150.708C3.953,83.11,62.766,18.26,67.073,16.513s18.281,3.019,18.909,6.173C84.286,27.13,52.438,110.3,55.3,114.263,70.245,112.72,209.408,109.464,222.364,116.875Z" transform="translate(0.196 11.235)" fill="#6b6156"/>
    <path id="Path_365" data-name="Path 365" d="M121.75,118.34c2.934,5.223,32.645,55.811,32.323,60.051s-4.257,33.544-8.852,46.382" transform="translate(84.717 82.353)" fill="none" stroke="#1f161e" stroke-linecap="round" stroke-miterlimit="10" stroke-width="0.55"/>
    <path id="Path_366" data-name="Path 366" d="M50.057,121.5A154.46,154.46,0,0,1,51.6,92.2" transform="translate(34.731 64.163)" fill="none" stroke="#1f161e" stroke-linecap="round" stroke-miterlimit="10" stroke-width="0.55"/>
  </g>
</svg>
