<svg id="Layer_2" data-name="Layer 2" xmlns="http://www.w3.org/2000/svg" width="1079.394" height="819.536" viewBox="0 0 1079.394 819.536">
  <g id="Layer_2-2" data-name="Layer 2" transform="translate(0)">
    <path id="Path_182" data-name="Path 182" d="M41.618,0H894.686A41.618,41.618,0,0,1,936.3,41.618V629.8a41.618,41.618,0,0,1-41.618,41.618H41.618A41.618,41.618,0,0,1,0,629.8V41.618A41.618,41.618,0,0,1,41.618,0Z" transform="translate(61.461)" fill="#fff"/>
    <path id="Path_179" data-name="Path 179" d="M79.67,0H969.634A23.17,23.17,0,0,1,992.8,23.17V574.108H56.5V23.17A23.17,23.17,0,0,1,79.67,0Z" transform="translate(4.961 0)" fill="#fff"/>
    <path id="Path_181" data-name="Path 181" d="M0,0H868.189V497.344H0Z" transform="translate(91.734 35.679)" fill="#232326"/>
    <path id="Path_180" data-name="Path 180" d="M579.175,769.122H412.511a32.771,32.771,0,0,1-32.49-37.041L394.617,621H597.879L611.7,732.362a32.771,32.771,0,0,1-32.522,36.76Z" transform="translate(31.202 50.414)" fill="#fff"/>
    <ellipse id="Ellipse_115" data-name="Ellipse 115" cx="25.948" cy="25.948" rx="25.948" ry="25.948" transform="translate(503.664 595.731)" opacity="0.8"/>
    <rect id="Rectangle_292" data-name="Rectangle 292" width="534.104" height="236.779" rx="8" transform="translate(545.29 65.411)" fill="#dd8c2c" opacity="0.8"/>
    <line id="Line_63" data-name="Line 63" x2="509.237" transform="translate(0.374 344.356)" fill="none" stroke="#fff" stroke-miterlimit="10" stroke-width="3.52"/>
    <line id="Line_64" data-name="Line 64" x2="508.811" transform="translate(0 384.522)" fill="none" stroke="#fff" stroke-miterlimit="10" stroke-width="3.52"/>
    <line id="Line_65" data-name="Line 65" x2="508.811" transform="translate(0 423.363)" fill="none" stroke="#fff" stroke-miterlimit="10" stroke-width="3.52"/>
    <line id="Line_66" data-name="Line 66" x2="508.811" transform="translate(0 464.146)" fill="none" stroke="#fff" stroke-miterlimit="10" stroke-width="3.52"/>
    <g id="Group_494" data-name="Group 494" transform="translate(7.942 84.873)">
      <ellipse id="Ellipse_116" data-name="Ellipse 116" cx="11.893" cy="11.893" rx="11.893" ry="11.893" fill="#c36448"/>
      <ellipse id="Ellipse_117" data-name="Ellipse 117" cx="11.893" cy="11.893" rx="11.893" ry="11.893" transform="translate(33.517)" fill="#c36448"/>
      <ellipse id="Ellipse_118" data-name="Ellipse 118" cx="11.893" cy="11.893" rx="11.893" ry="11.893" transform="translate(67.033)" fill="#c36448"/>
      <ellipse id="Ellipse_119" data-name="Ellipse 119" cx="11.893" cy="11.893" rx="11.893" ry="11.893" transform="translate(100.55)" fill="#c36448"/>
      <ellipse id="Ellipse_120" data-name="Ellipse 120" cx="11.893" cy="11.893" rx="11.893" ry="11.893" transform="translate(134.067)" fill="#c36448"/>
      <ellipse id="Ellipse_121" data-name="Ellipse 121" cx="11.893" cy="11.893" rx="11.893" ry="11.893" transform="translate(167.583)" fill="#c36448"/>
      <ellipse id="Ellipse_122" data-name="Ellipse 122" cx="11.893" cy="11.893" rx="11.893" ry="11.893" transform="translate(0 69.196)" fill="#c36448"/>
      <ellipse id="Ellipse_123" data-name="Ellipse 123" cx="11.893" cy="11.893" rx="11.893" ry="11.893" transform="translate(33.517 69.196)" fill="#c36448"/>
      <ellipse id="Ellipse_124" data-name="Ellipse 124" cx="11.893" cy="11.893" rx="11.893" ry="11.893" transform="translate(67.033 69.196)" fill="#c36448"/>
      <ellipse id="Ellipse_125" data-name="Ellipse 125" cx="11.893" cy="11.893" rx="11.893" ry="11.893" transform="translate(100.55 69.196)" fill="#c36448"/>
      <ellipse id="Ellipse_126" data-name="Ellipse 126" cx="11.893" cy="11.893" rx="11.893" ry="11.893" transform="translate(134.067 69.196)" fill="#c36448"/>
      <ellipse id="Ellipse_127" data-name="Ellipse 127" cx="11.893" cy="11.893" rx="11.893" ry="11.893" transform="translate(167.583 69.196)" fill="#c36448"/>
      <ellipse id="Ellipse_128" data-name="Ellipse 128" cx="11.893" cy="11.893" rx="11.893" ry="11.893" transform="translate(17.299 34.598)" fill="#c36448"/>
      <ellipse id="Ellipse_129" data-name="Ellipse 129" cx="11.893" cy="11.893" rx="11.893" ry="11.893" transform="translate(50.816 34.598)" fill="#c36448"/>
      <ellipse id="Ellipse_130" data-name="Ellipse 130" cx="11.893" cy="11.893" rx="11.893" ry="11.893" transform="translate(84.332 34.598)" fill="#c36448"/>
      <ellipse id="Ellipse_131" data-name="Ellipse 131" cx="11.893" cy="11.893" rx="11.893" ry="11.893" transform="translate(117.849 34.598)" fill="#c36448"/>
      <ellipse id="Ellipse_132" data-name="Ellipse 132" cx="11.893" cy="11.893" rx="11.893" ry="11.893" transform="translate(151.365 34.598)" fill="#c36448"/>
      <ellipse id="Ellipse_133" data-name="Ellipse 133" cx="11.893" cy="11.893" rx="11.893" ry="11.893" transform="translate(184.882 34.598)" fill="#c36448"/>
      <ellipse id="Ellipse_134" data-name="Ellipse 134" cx="11.893" cy="11.893" rx="11.893" ry="11.893" transform="translate(17.299 103.794)" fill="#c36448"/>
      <ellipse id="Ellipse_135" data-name="Ellipse 135" cx="11.893" cy="11.893" rx="11.893" ry="11.893" transform="translate(50.816 103.794)" fill="#c36448"/>
      <ellipse id="Ellipse_136" data-name="Ellipse 136" cx="11.893" cy="11.893" rx="11.893" ry="11.893" transform="translate(84.332 103.794)" fill="#c36448"/>
      <ellipse id="Ellipse_137" data-name="Ellipse 137" cx="11.893" cy="11.893" rx="11.893" ry="11.893" transform="translate(117.849 103.794)" fill="#c36448"/>
      <ellipse id="Ellipse_138" data-name="Ellipse 138" cx="11.893" cy="11.893" rx="11.893" ry="11.893" transform="translate(151.365 103.794)" fill="#c36448"/>
      <ellipse id="Ellipse_139" data-name="Ellipse 139" cx="11.893" cy="11.893" rx="11.893" ry="11.893" transform="translate(184.882 103.794)" fill="#c36448"/>
    </g>
  </g>
</svg>
