<svg width="41" height="41" viewBox="0 0 41 41" fill="none" xmlns="http://www.w3.org/2000/svg">
<path id="Vector" d="M17.5239 16.6485C17.0069 16.9942 16.5631 17.4382 16.2177 17.9554C15.8723 18.4726 15.6322 19.0527 15.511 19.6626C15.2663 20.8945 15.521 22.1731 16.219 23.2172C16.9171 24.2613 18.0013 24.9854 19.2331 25.2301C20.465 25.4748 21.7436 25.2201 22.7877 24.5221C23.8318 23.8241 24.5559 22.7399 24.8006 21.508C25.0453 20.2761 24.7906 18.9975 24.0926 17.9534C23.3946 16.9093 22.3104 16.1853 21.0785 15.9405C19.8466 15.6958 18.568 15.9505 17.5239 16.6485ZM30.1553 10.5769C29.6937 10.1153 29.1345 9.75141 28.522 9.51174C26.9153 8.8815 23.4091 8.90813 21.1455 8.93476C20.7816 8.93476 20.4443 8.94364 20.1514 8.94364C19.8584 8.94364 19.5123 8.94364 19.1394 8.93476C16.8759 8.90813 13.3874 8.87262 11.7807 9.51174C11.1682 9.75141 10.6179 10.1153 10.1474 10.5769C9.67697 11.0385 9.3219 11.5977 9.08224 12.2102C8.452 13.8169 8.4875 17.332 8.50526 19.5956C8.50526 19.9595 8.51413 20.2968 8.51413 20.5809C8.51413 20.8649 8.51413 21.2022 8.50526 21.5662C8.4875 23.8297 8.452 27.3448 9.08224 28.9515C9.3219 29.564 9.68584 30.1144 10.1474 30.5848C10.609 31.0553 11.1682 31.4103 11.7807 31.65C13.3874 32.2802 16.8937 32.2536 19.1572 32.227C19.5211 32.227 19.8584 32.2181 20.1514 32.2181C20.4443 32.2181 20.7905 32.2181 21.1633 32.227C23.4268 32.2536 26.9153 32.2891 28.522 31.65C29.1345 31.4103 29.6848 31.0464 30.1553 30.5848C30.6258 30.1232 30.9808 29.564 31.2205 28.9515C31.8596 27.3537 31.8241 23.8563 31.7975 21.5839C31.7975 21.2111 31.7886 20.8649 31.7886 20.572C31.7886 20.2791 31.7886 19.9418 31.7975 19.5601C31.8241 17.2965 31.8596 13.7991 31.2205 12.1925C30.9808 11.58 30.6169 11.0296 30.1553 10.5592V10.5769ZM24.1991 14.527C25.8047 15.6005 26.918 17.2679 27.2943 19.1623C27.6705 21.0567 27.2787 23.023 26.2052 24.6286C25.6737 25.4236 24.9907 26.1061 24.1954 26.6372C23.4001 27.1683 22.5079 27.5375 21.5699 27.7238C19.6755 28.1 17.7092 27.7082 16.1036 26.6347C14.4981 25.5624 13.3842 23.8961 13.0072 22.0025C12.6301 20.109 13.0207 18.1432 14.0931 16.5376C15.1654 14.932 16.8317 13.8182 18.7253 13.4411C20.6188 13.0641 22.5846 13.4547 24.1902 14.527H24.1991ZM26.7911 14.4116C26.5159 14.2252 26.294 13.9589 26.1608 13.6482C26.0277 13.3376 26.0011 13.0002 26.0632 12.6629C26.1253 12.3256 26.294 12.0327 26.5248 11.793C26.7556 11.5534 27.0662 11.3936 27.3947 11.3314C27.7231 11.2693 28.0693 11.2959 28.38 11.4291C28.6907 11.5622 28.957 11.7753 29.1434 12.0504C29.3298 12.3256 29.4274 12.6541 29.4274 12.9914C29.4274 13.2133 29.383 13.4352 29.3032 13.6394C29.2233 13.8435 29.0901 14.0299 28.9392 14.1897C28.7883 14.3495 28.593 14.4738 28.3889 14.5625C28.1847 14.6513 27.9628 14.6957 27.7409 14.6957C27.4036 14.6957 27.0751 14.598 26.7999 14.4116H26.7911ZM40.035 6.3783C40.035 3.24485 37.4874 0.697266 34.3539 0.697266H5.94879C2.81535 0.697266 0.267761 3.24485 0.267761 6.3783V34.7834C0.267761 37.9169 2.81535 40.4645 5.94879 40.4645H34.3539C37.4874 40.4645 40.035 37.9169 40.035 34.7834V6.3783ZM31.9573 32.3868C30.2973 34.0467 28.2823 34.5704 26.0099 34.6858C23.6665 34.819 16.6362 34.819 14.2928 34.6858C12.0204 34.5704 10.0054 34.0467 8.34548 32.3868C6.68555 30.7268 6.16183 28.7118 6.05531 26.4394C5.92216 24.096 5.92216 17.0657 6.05531 14.7223C6.17071 12.4499 6.68555 10.4349 8.34548 8.77498C10.0054 7.11505 12.0293 6.59133 14.2928 6.48482C16.6362 6.35167 23.6665 6.35167 26.0099 6.48482C28.2823 6.60021 30.2973 7.11505 31.9573 8.77498C33.6172 10.4349 34.1409 12.4499 34.2474 14.7223C34.3806 17.0569 34.3806 24.0783 34.2474 26.4306C34.132 28.703 33.6172 30.718 31.9573 32.3779V32.3868Z" fill="#F15A22"/>
</svg>
