<svg width="293" height="139" viewBox="0 0 293 139" fill="none" xmlns="http://www.w3.org/2000/svg">
<path d="M3.67053 123.1V118.578L8.1157 118.083C9.10484 117.945 9.24785 117.731 9.24785 116.675V78.4493C9.24785 77.3873 9.10484 77.1069 8.1157 77.0353L3.67053 76.5401V71.9461H24.4901V76.5401L18.6328 77.1367C17.5721 77.2083 17.5006 77.4887 17.5006 78.4791V117.128H33.309C34.0836 117.128 34.2981 117.056 34.4411 116.346L35.5673 109.634H41.526V123.13L3.67053 123.1Z" fill="#F15A22"/>
<path d="M70.1396 123.1L69.4364 118.924L69.2219 118.858C67.6024 120.501 65.667 121.799 63.5328 122.673C61.3985 123.546 59.1095 123.978 56.804 123.941C47.9137 123.941 46.716 117.868 46.716 113.912C46.716 106.842 51.0897 103.454 59.7 102.75L68.638 102.04V98.4598C68.638 94.0091 67.8574 91.6047 62.429 91.6047C58.544 91.6047 55.9341 91.8911 55.9341 96.7654L48.3368 96.0555C48.3368 87.0107 56.5955 85.8772 62.5899 85.8772C72.821 85.8772 76.6345 88.7767 76.6345 98.5255V116.687C76.6345 117.814 76.706 117.957 77.7607 118.095L81.2227 118.59V123.112L70.1396 123.1ZM68.6618 107.206L61.9583 107.767C56.661 108.262 55.0403 109.748 55.0403 113.137C55.0403 116.525 56.661 117.659 59.5569 117.659C63.013 117.659 66.5405 115.541 68.6618 113.423V107.206Z" fill="#F15A22"/>
<path d="M107.542 123.1V118.649L111.07 118.226C112.059 118.083 112.196 117.659 112.196 116.812V100.423C112.196 96.1808 111.701 92.6667 107.185 92.6667C103.609 92.6667 99.8495 94.6474 97.5197 96.3418V116.692C97.5197 117.82 97.5912 117.963 98.6459 118.1L102.388 118.596V123.118H84.8873V118.524L88.2778 118.1C89.261 117.963 89.404 117.748 89.404 116.692V93.9196C89.404 93.144 89.1954 92.6488 88.4863 92.44L84.6132 91.0976L85.3163 86.5752H95.7559L96.3518 90.4592L96.6318 90.5308C100.582 87.846 104.748 85.8652 109.83 85.8652C117.451 85.8652 120.341 90.674 120.341 98.7939V116.692C120.341 117.82 120.413 117.963 121.474 118.1L125.353 118.596V123.118L107.542 123.1Z" fill="#F15A22"/>
<path d="M158.411 92.1536C160.132 94.1885 161.082 96.7658 161.093 99.4323C161.093 107.63 154.604 112.152 146.345 112.152C144.351 112.206 142.359 111.991 140.422 111.514L137.175 116.883L145.856 117.307C158.411 117.945 164.412 118.578 164.412 127.127C164.412 134.615 157.923 139 145.642 139C133.224 139 128.779 135.677 128.779 130.307C128.779 126.918 130.68 124.866 133.081 122.605C130.751 121.615 129.834 119.92 129.834 118.226C129.834 116.74 130.429 115.541 131.621 114.199C132.813 112.856 134.237 111.162 135.506 109.819C132.259 108.03 130 104.378 130 99.4323C130 91.5868 135.506 85.8652 145.594 85.8652C147.826 85.832 150.053 86.0704 152.226 86.5752H165.055V91.73L158.411 92.1536ZM138.658 124.096C137.383 125.439 135.977 127.205 135.977 129.042C135.977 132.294 139.713 133.35 145.856 133.35C149.432 133.35 156.296 132.789 156.296 128.267C156.296 125.158 153.615 125.015 149.521 124.735L138.658 124.096ZM145.988 91.5868C141.262 91.5868 137.806 93.9733 137.806 99.2891C137.806 103.316 139.993 106.359 145.779 106.359C150.647 106.359 153.895 103.531 153.895 99.1519C153.901 94.2656 150.933 91.5868 145.988 91.5868Z" fill="#F15A22"/>
<path d="M190.588 123.1L189.885 118.924L189.671 118.858C188.051 120.501 186.116 121.799 183.981 122.673C181.847 123.546 179.558 123.978 177.253 123.941C168.362 123.941 167.165 117.868 167.165 113.912C167.165 106.842 171.538 103.454 180.149 102.75L189.087 102.04V98.4598C189.087 94.0091 188.306 91.6047 182.878 91.6047C178.993 91.6047 176.383 91.8911 176.383 96.7654L168.785 96.0555C168.785 87.0107 177.044 85.8772 183.039 85.8772C193.27 85.8772 197.083 88.7767 197.083 98.5255V116.687C197.083 117.814 197.155 117.957 198.209 118.095L201.671 118.59V123.112L190.588 123.1ZM189.11 107.206L182.407 107.767C177.11 108.262 175.489 109.748 175.489 113.137C175.489 116.525 177.11 117.659 180.006 117.659C183.462 117.659 186.989 115.541 189.11 113.423V107.206Z" fill="#F15A22"/>
<path d="M205.336 123.1V118.506L208.726 118.083C209.71 117.945 209.853 117.731 209.853 116.675V93.9196C209.903 93.6037 209.838 93.2803 209.669 93.0085C209.501 92.7368 209.24 92.535 208.935 92.44L205.056 91.0976L205.759 86.5752H216.3L217.075 91.73L217.289 91.8016C219.613 88.7648 222.932 85.8354 227.657 85.8354C229.51 85.8531 231.355 86.0671 233.163 86.4738V98.0601L226.811 97.7797L225.965 93.3945C225.893 92.7621 225.756 92.6189 225.119 92.6189C222.437 92.6189 219.404 94.9517 217.968 96.2941V116.579C217.968 117.707 218.111 117.922 219.16 117.993L225.792 118.554V123.076L205.336 123.1Z" fill="#F15A22"/>
<path d="M259.107 123.1L258.398 118.924L258.189 118.858C256.57 120.501 254.634 121.799 252.5 122.672C250.366 123.546 248.077 123.978 245.772 123.941C236.875 123.941 235.678 117.868 235.678 113.912C235.678 106.842 240.051 103.454 248.662 102.75L257.6 102.04V98.4598C257.6 94.0091 256.825 91.6047 251.391 91.6047C247.511 91.6047 244.902 91.8911 244.902 96.7654L237.304 96.0555C237.304 87.0107 245.557 85.8772 251.557 85.8772C261.788 85.8772 265.596 88.7767 265.596 98.5255V116.686C265.596 117.814 265.668 117.957 266.728 118.095L270.184 118.59V123.112L259.107 123.1ZM257.623 107.206L250.92 107.767C245.629 108.262 244.008 109.748 244.008 113.137C244.008 116.525 245.629 117.659 248.519 117.659C251.98 117.659 255.508 115.541 257.623 113.423V107.206Z" fill="#F15A22"/>
<path d="M280.135 123.947C276.673 123.947 274.909 122.325 274.909 119.073C274.909 115.821 276.697 114.199 280.135 114.199C283.573 114.199 285.283 115.893 285.283 119.073C285.283 122.253 283.52 123.947 280.135 123.947Z" fill="#F15A22"/>
<path d="M0 55.9031H293" stroke="#F15A22" stroke-width="2.45" stroke-miterlimit="10"/>
<path d="M14.2472 12.9645H11.2261L9.37895 5.96618C9.2614 5.54627 9.16789 5.11999 9.09889 4.68942C9.02143 4.24195 8.94992 3.78852 8.89034 3.33509C8.80277 4.20396 8.64333 5.06406 8.41364 5.90652L6.55453 12.9645H3.70033L0.45285 0.208817H3.07467L4.8146 7.25487C4.90994 7.6725 4.99932 8.0961 5.07678 8.53163C5.15425 8.96716 5.21979 9.4027 5.28534 9.84419C5.34492 9.41463 5.41643 8.99103 5.49389 8.56743C5.56607 8.15124 5.65954 7.73903 5.77395 7.33243L7.74627 0.208817H10.3562L12.3166 7.29664C12.4179 7.64864 12.5132 8.03644 12.5966 8.48987C12.6801 8.9433 12.7635 9.35497 12.8231 9.79646C12.8826 9.35497 12.9542 8.93137 13.0316 8.52567C13.1091 8.11997 13.1925 7.73217 13.2938 7.33243L15.0397 0.208817H17.4947L14.2472 12.9645Z" fill="#F15A22"/>
<path d="M21.0818 12.9645V0.208817H28.0058V2.26715H23.5308V5.36956H27.7793V7.39209H23.5308V10.8465H28.0058V12.9466L21.0818 12.9645Z" fill="#F15A22"/>
<path d="M41.1148 9.0328C41.1103 9.51334 41.0236 9.98955 40.8586 10.4408C40.6751 10.9272 40.3814 11.3642 40.0006 11.7176C39.5384 12.1276 38.9997 12.4419 38.4156 12.6423C37.6357 12.8999 36.8173 13.021 35.9963 13.0003H34.4471C33.7976 13.0003 33.0647 13.0003 32.2603 13.0003V0.226719C32.8025 0.226719 33.452 0.17899 34.1968 0.161091C34.9417 0.143193 35.752 0.13126 36.5028 0.13126C37.6145 0.0629714 38.7194 0.346859 39.6609 0.942661C40.0245 1.21123 40.3157 1.56618 40.5081 1.9755C40.7006 2.38482 40.7882 2.83565 40.7633 3.28737C40.7734 3.89756 40.5989 4.49654 40.2628 5.00563C39.9177 5.52291 39.4198 5.91926 38.8386 6.1392V6.18096C39.1929 6.24549 39.5311 6.3793 39.8337 6.57473C40.1077 6.7583 40.3493 6.98612 40.5488 7.24891C40.7436 7.50274 40.891 7.78976 40.9838 8.09611C41.0741 8.39999 41.1183 8.71575 41.1148 9.0328ZM38.1355 3.66324C38.1451 3.45058 38.1091 3.23832 38.03 3.04074C37.9508 2.84316 37.8304 2.66483 37.6767 2.51773C37.2164 2.19029 36.6537 2.0399 36.0917 2.09413H35.3707H34.7271V5.48292C34.8761 5.48292 35.031 5.48292 35.186 5.48292H35.752C36.3829 5.53047 37.0118 5.36677 37.5396 5.01756C37.7361 4.85802 37.8924 4.6545 37.9959 4.4234C38.0994 4.19231 38.1472 3.9401 38.1355 3.6871V3.66324ZM38.493 9.0328C38.4999 8.77237 38.4345 8.51515 38.304 8.28974C38.1736 8.06433 37.9832 7.87958 37.7542 7.75604C37.1459 7.46188 36.4746 7.32253 35.7997 7.35034H35.2932C35.0549 7.35034 34.8642 7.35034 34.7271 7.35034V10.93C34.9247 10.9587 35.1236 10.9766 35.323 10.9837C35.5574 10.9837 35.8196 10.9837 36.1096 10.9837C36.7468 11.025 37.3786 10.8437 37.8972 10.4706C38.0959 10.2995 38.2533 10.0856 38.3575 9.84479C38.4618 9.60401 38.5101 9.34271 38.499 9.08053L38.493 9.0328Z" fill="#F15A22"/>
<path d="M58.8658 12.9645L57.9779 10.3573H53.1633L52.2755 12.9645H49.8026L54.2597 0.208817H57.0305L61.5829 12.9645H58.8658ZM56.089 4.77294C55.9758 4.4627 55.8745 4.17632 55.7851 3.86608C55.6957 3.55584 55.6242 3.26947 55.5587 3.01889C55.4872 3.29333 55.4038 3.57971 55.3263 3.86608C55.2488 4.15246 55.1475 4.4627 55.0522 4.77294L53.783 8.40038H57.3582L56.089 4.77294Z" fill="#F15A22"/>
<path d="M72.1893 12.9645L68.4533 6.52103C68.1732 6.03777 67.9229 5.56644 67.6965 5.10108C67.4701 4.63572 67.2615 4.19422 67.1006 3.77659C67.1006 4.057 67.1006 4.37321 67.1483 4.75504C67.196 5.13688 67.1841 5.51871 67.19 5.94828C67.196 6.37784 67.19 6.78354 67.19 7.21311C67.19 7.64267 67.19 8.04241 67.19 8.40634V12.9645H64.8065V0.208817H68.0004L71.5458 6.29432C71.8378 6.78354 72.1417 7.29067 72.3681 7.80376C72.5945 8.31685 72.8746 8.81801 73.1129 9.2953C73.1129 8.98506 73.0653 8.60919 73.0474 8.17963C73.0295 7.75006 73.0474 7.30857 73.0116 6.84321C72.9759 6.37784 73.0116 5.91248 73.0116 5.45309C73.0116 4.99369 73.0116 4.56413 73.0116 4.17632V0.208817H75.3951V12.9645H72.1893Z" fill="#F15A22"/>
<path d="M90.8162 6.36592C90.8351 7.35466 90.6611 8.33759 90.3037 9.25952C89.989 10.0569 89.4957 10.7713 88.8617 11.3477C88.2172 11.9232 87.4574 12.3544 86.6332 12.6125C85.7167 12.9056 84.7589 13.0487 83.7969 13.0361C83.1295 13.0361 82.5038 13.0361 81.9258 13.0361L80.2455 12.9705V0.226724C80.752 0.226724 81.3657 0.178994 82.0867 0.161096C82.8077 0.143197 83.5704 0.131265 84.3629 0.131265C85.2641 0.121127 86.1624 0.235563 87.0324 0.471337C87.7877 0.673681 88.4855 1.04956 89.0703 1.56911C89.6498 2.10274 90.0932 2.76764 90.3633 3.50812C90.6879 4.42488 90.8414 5.39358 90.8162 6.36592ZM88.1884 6.5628C88.1941 5.9453 88.12 5.32965 87.9679 4.73119C87.843 4.22593 87.6069 3.75504 87.2767 3.353C86.9486 2.96253 86.523 2.6661 86.0433 2.49387C85.4493 2.28038 84.821 2.17923 84.1901 2.19556H83.3738C83.1235 2.19556 82.8971 2.19556 82.6945 2.24329V10.8465C82.8733 10.8465 83.0759 10.8942 83.2904 10.9121C83.5049 10.93 83.7671 10.942 84.0233 10.942C84.5878 10.9488 85.1495 10.8622 85.6858 10.6854C86.1776 10.5247 86.626 10.2533 86.9967 9.89193C87.3793 9.50272 87.6722 9.03435 87.8547 8.51971C88.083 7.89293 88.1961 7.22993 88.1884 6.5628Z" fill="#F15A22"/>
<path d="M112.857 12.9645L111.952 6.879C111.85 6.28238 111.773 5.75736 111.719 5.2562C111.666 4.75504 111.606 4.27775 111.558 3.83625H111.517C111.433 4.24195 111.338 4.66555 111.237 5.11301C111.128 5.60331 110.993 6.08729 110.831 6.5628L108.811 12.9705H106.38L104.432 7.00429C104.259 6.46137 104.104 5.93038 103.973 5.40536C103.842 4.88033 103.723 4.36128 103.621 3.83029H103.586C103.55 4.4269 103.496 4.94 103.437 5.45309C103.377 5.96618 103.3 6.51507 103.228 7.08185L102.489 12.9645H99.9985L101.971 0.208817H104.837L106.97 6.77161C107.095 7.14748 107.22 7.56511 107.34 8.01854C107.459 8.47197 107.572 8.94927 107.685 9.45639C107.786 8.9612 107.888 8.51374 108.001 8.10207C108.114 7.6904 108.251 7.26084 108.4 6.80741L110.587 0.244614H113.441L115.42 13.0003L112.857 12.9645Z" fill="#F15A22"/>
<path d="M130.495 6.40768C130.51 7.37507 130.342 8.33653 130 9.24162C129.7 10.0297 129.249 10.7512 128.672 11.3656C128.116 11.9476 127.444 12.4052 126.699 12.708C125.925 13.0217 125.097 13.1798 124.262 13.1733C123.393 13.1911 122.529 13.0391 121.718 12.7259C121.026 12.4514 120.412 12.0109 119.93 11.4431C119.431 10.8489 119.064 10.1555 118.852 9.40867C118.604 8.54387 118.483 7.64743 118.494 6.74776C118.477 5.78068 118.642 4.81904 118.983 3.91382C119.273 3.12472 119.718 2.4023 120.294 1.78986C120.856 1.21452 121.531 0.763338 122.278 0.465371C123.035 0.15706 123.844 -0.000992114 124.661 9.40508e-06C125.455 -0.00780947 126.243 0.123438 126.991 0.387811C127.689 0.63686 128.32 1.04542 128.833 1.58105C129.372 2.14921 129.779 2.82968 130.024 3.57375C130.341 4.48459 130.501 5.44307 130.495 6.40768ZM127.867 6.59264C127.944 5.44127 127.641 4.29655 127.003 3.3351C126.703 2.95685 126.316 2.65717 125.875 2.46179C125.434 2.26642 124.952 2.1812 124.471 2.21346C124.032 2.21117 123.598 2.30058 123.196 2.47597C122.784 2.65855 122.418 2.92945 122.123 3.26947C121.791 3.66055 121.538 4.11239 121.378 4.59993C121.177 5.20552 121.08 5.8411 121.092 6.47928C121.084 7.09976 121.153 7.71886 121.295 8.32283C121.402 8.82397 121.604 9.29989 121.891 9.72488C122.166 10.1011 122.525 10.4076 122.939 10.6198C123.402 10.8433 123.91 10.9537 124.423 10.942C124.846 10.9399 125.265 10.8569 125.657 10.6974C126.079 10.5237 126.457 10.2588 126.765 9.92176C127.116 9.52739 127.385 9.06702 127.557 8.56744C127.771 7.93159 127.874 7.26351 127.861 6.59264H127.867Z" fill="#F15A22"/>
<path d="M143.169 9.0328C143.167 9.51361 143.081 9.99032 142.913 10.4408C142.734 10.9294 142.439 11.3675 142.055 11.7176C141.594 12.1301 141.055 12.4447 140.47 12.6423C139.692 12.9 138.876 13.0211 138.057 13.0003H136.507C135.852 13.0003 135.125 13.0003 134.32 13.0003V0.226718C134.857 0.226718 135.512 0.178989 136.251 0.16109C136.99 0.143191 137.765 0.131259 138.545 0.131259C139.659 0.0633297 140.765 0.347141 141.709 0.942659C142.072 1.21197 142.363 1.56705 142.555 1.97619C142.747 2.38533 142.835 2.83579 142.812 3.28737C142.824 3.90356 142.646 4.50857 142.301 5.01924C141.957 5.5299 141.463 5.92115 140.887 6.1392V6.18096C141.239 6.24549 141.576 6.37932 141.876 6.57473C142.153 6.75633 142.397 6.98439 142.597 7.24891C142.788 7.50445 142.933 7.79107 143.026 8.09611C143.12 8.39937 143.169 8.71515 143.169 9.0328ZM140.19 3.66324C140.2 3.44999 140.163 3.2371 140.083 3.03932C140.003 2.84153 139.881 2.66356 139.725 2.51773C139.265 2.1893 138.702 2.03881 138.14 2.09413H137.419H136.769V5.48292C136.924 5.48292 137.073 5.48292 137.234 5.48292H137.765C138.415 5.53704 139.065 5.3665 139.606 4.99966C139.797 4.83986 139.948 4.63854 140.05 4.41106C140.151 4.18359 140.199 3.93597 140.19 3.6871V3.66324ZM140.547 9.0328C140.554 8.77176 140.487 8.51411 140.356 8.28864C140.224 8.06318 140.033 7.87877 139.802 7.75603C139.194 7.46258 138.523 7.32327 137.848 7.35033H137.336C137.097 7.35033 136.912 7.35033 136.769 7.35033V10.93C136.924 10.93 137.115 10.9718 137.365 10.9837C137.616 10.9957 137.86 10.9837 138.146 10.9837C138.783 11.026 139.415 10.8446 139.934 10.4706C140.135 10.3013 140.295 10.0879 140.402 9.84695C140.508 9.60597 140.558 9.34379 140.547 9.08053V9.0328Z" fill="#F15A22"/>
<path d="M147.304 12.9645V0.208817H149.753V12.9645H147.304Z" fill="#F15A22"/>
<path d="M154.646 12.9645V0.208817H157.095V10.8107H161.23V12.9645H154.646Z" fill="#F15A22"/>
<path d="M164.626 12.9645V0.208817H171.556V2.26715H167.081V5.36956H171.33V7.39209H167.081V10.8465H171.556V12.9466L164.626 12.9645Z" fill="#F15A22"/>
<path d="M11.9173 29.0433C11.9376 30.0316 11.7656 31.0144 11.4109 31.9369C11.0828 32.7311 10.5773 33.4393 9.9331 34.0072C9.28986 34.5814 8.53234 35.0125 7.71052 35.272C6.79184 35.5647 5.8322 35.7077 4.86823 35.6956C4.20086 35.6956 3.58115 35.6956 2.9972 35.6956C2.41325 35.6956 1.8591 35.6539 1.32281 35.624V22.9042C1.82334 22.9042 2.43709 22.8564 3.15809 22.8385C3.87909 22.8206 4.6418 22.8087 5.4343 22.8087C6.33554 22.7982 7.23389 22.9126 8.10379 23.1488C8.85484 23.3528 9.54834 23.7286 10.1297 24.2465C10.7112 24.7762 11.155 25.4396 11.4228 26.1796C11.7616 27.0957 11.9293 28.0665 11.9173 29.0433ZM9.29552 29.2343C9.3045 28.6166 9.23035 28.0005 9.07505 27.4027C8.93581 26.8927 8.68552 26.42 8.34213 26.0185C8.0227 25.637 7.61301 25.3417 7.1504 25.1594C6.55312 24.9515 5.92346 24.8525 5.29129 24.867H4.48091C4.22469 24.867 3.99826 24.867 3.79567 24.9148V33.5239C3.97443 33.5239 4.17702 33.5717 4.39153 33.5896C4.60605 33.6075 4.86823 33.6194 5.11849 33.6194C5.68475 33.6237 6.24805 33.5371 6.78692 33.3629C7.2758 33.1996 7.72178 32.9284 8.09187 32.5694C8.4699 32.1788 8.75861 31.7105 8.938 31.1971C9.16437 30.5679 9.2754 29.903 9.26573 29.2343H9.29552Z" fill="#F15A22"/>
<path d="M15.7964 35.6419V22.8863H22.7204V24.9446H18.2514V28.041H22.494V30.0576H18.2514V33.518H22.7204V35.6181L15.7964 35.6419Z" fill="#F15A22"/>
<path d="M34.4829 31.7222C34.4885 32.2916 34.3641 32.8548 34.1194 33.3688C33.8812 33.8684 33.5424 34.3132 33.1243 34.6754C32.6678 35.0555 32.1444 35.3469 31.581 35.5346C30.9313 35.7483 30.2508 35.8531 29.567 35.8448C28.5752 35.8599 27.5857 35.7456 26.6234 35.5047L26.8915 33.1481C27.3145 33.3251 27.7535 33.4609 28.2024 33.5538C28.6835 33.6466 29.1724 33.6925 29.6623 33.691C29.9389 33.6924 30.2148 33.6624 30.4846 33.6015C30.7271 33.5439 30.9573 33.4428 31.1639 33.3032C31.3552 33.1734 31.5126 32.9995 31.6227 32.7961C31.7431 32.56 31.8025 32.2974 31.7955 32.0324C31.8028 31.852 31.7709 31.6721 31.702 31.5052C31.6331 31.3383 31.5288 31.1884 31.3963 31.0659C31.0978 30.7992 30.7576 30.5836 30.3893 30.4275C29.99 30.2485 29.561 30.0755 29.0962 29.9084C28.6401 29.7409 28.2059 29.5185 27.8032 29.2462C27.4042 28.9761 27.0671 28.6243 26.8141 28.2141C26.5248 27.6958 26.3865 27.1067 26.4148 26.5137C26.4084 25.9775 26.5182 25.4462 26.7366 24.9565C26.9545 24.4915 27.2767 24.0831 27.6781 23.7633C28.1292 23.4011 28.6448 23.1278 29.1975 22.9579C29.8646 22.76 30.5576 22.6635 31.2533 22.6715C31.6356 22.6712 32.0176 22.6931 32.3973 22.7371C32.7856 22.7761 33.1715 22.8358 33.5533 22.9161L33.3269 25.0579C32.9764 24.9438 32.6179 24.8561 32.2543 24.7954C31.8865 24.7306 31.5136 24.6987 31.1401 24.7C30.579 24.6565 30.0198 24.8059 29.555 25.1236C29.388 25.2588 29.2547 25.431 29.1658 25.6268C29.0768 25.8225 29.0347 26.0363 29.0426 26.2512C29.0394 26.4246 29.074 26.5967 29.1439 26.7553C29.2139 26.914 29.3176 27.0555 29.4478 27.17C29.7538 27.4152 30.0928 27.6161 30.4548 27.7666C30.854 27.9515 31.295 28.1305 31.7657 28.3095C32.2294 28.4813 32.6682 28.7141 33.0707 29.0016C33.4748 29.286 33.8173 29.6492 34.0777 30.0695C34.3661 30.571 34.5065 31.144 34.4829 31.7222Z" fill="#F15A22"/>
<path d="M38.3679 35.6419V22.8863H40.8229V35.6419H38.3679Z" fill="#F15A22"/>
<path d="M53.4195 35.6181C52.6691 35.7593 51.9069 35.8292 51.1433 35.8269C50.223 35.8421 49.3073 35.6946 48.4381 35.3914C47.6783 35.1285 46.9849 34.703 46.4062 34.1444C45.8432 33.5888 45.4116 32.914 45.1429 32.1696C44.8349 31.3333 44.6814 30.4478 44.6901 29.5564C44.6817 28.6129 44.8494 27.676 45.1846 26.7941C45.4929 25.9764 45.9747 25.2354 46.5969 24.6224C47.2474 24.0014 48.018 23.5202 48.8611 23.2084C49.7945 22.8485 50.7867 22.6664 51.7869 22.6715C52.4275 22.6684 53.0672 22.7183 53.6996 22.8206C54.2821 22.9263 54.8557 23.0759 55.4157 23.2681L54.9271 25.4994C53.8862 25.0953 52.7781 24.8928 51.6617 24.9028C51.0724 24.8962 50.4868 24.9973 49.9337 25.2011C49.4247 25.3834 48.9627 25.6769 48.5811 26.0603C48.1822 26.4514 47.8714 26.9233 47.6694 27.4444C47.4514 28.0547 47.3464 28.6996 47.3596 29.3476C47.2868 30.4989 47.6652 31.6332 48.4142 32.5097C48.8042 32.8962 49.2709 33.1963 49.7842 33.3906C50.2975 33.5849 50.8458 33.6689 51.3936 33.6373C51.948 33.6442 52.5004 33.5677 53.0322 33.4106V28.9479H55.4872V35.0334C54.8189 35.296 54.1263 35.4918 53.4195 35.6181Z" fill="#F15A22"/>
<path d="M67.333 35.6419L63.5969 29.1985C63.3169 28.7152 63.0666 28.2439 62.8402 27.7785C62.6138 27.3132 62.4052 26.8717 62.2443 26.454C62.2443 26.7344 62.2443 27.0507 62.292 27.4265C62.3397 27.8024 62.292 28.1962 62.3277 28.6198C62.3635 29.0434 62.3277 29.461 62.3277 29.8906C62.3277 30.3201 62.3277 30.7199 62.3277 31.0838V35.6419H59.9443V22.8863H63.162L66.7372 28.9718C67.0291 29.461 67.333 29.9621 67.5595 30.4812C67.7859 31.0003 68.0659 31.4955 68.3043 31.9727C68.3043 31.6565 68.2566 31.2866 68.2388 30.8571C68.2209 30.4275 68.2388 29.986 68.203 29.5147V28.1305C68.203 27.6711 68.203 27.2416 68.203 26.8538V22.8863H70.5865V35.6419H67.333Z" fill="#F15A22"/>
<path d="M88.8141 35.6419L87.9262 33.0347H83.1176L82.2297 35.6419H79.7569L84.208 22.8863H86.9967L91.5431 35.6419H88.8141ZM86.0433 27.4444C85.93 27.1282 85.8288 26.8478 85.7394 26.5376C85.65 26.2273 85.5785 25.9409 85.5129 25.6904C85.4355 25.9648 85.358 26.2512 85.2746 26.5376C85.1912 26.8239 85.1018 27.1342 85.0005 27.4444L83.7194 31.0838H87.2946L86.0433 27.4444Z" fill="#F15A22"/>
<path d="M102.138 35.6419L98.4016 29.1985C98.1275 28.7152 97.8772 28.2439 97.6508 27.7785C97.4243 27.3132 97.2158 26.8717 97.0549 26.454C97.0549 26.7344 97.0549 27.0507 97.1026 27.4265C97.1502 27.8024 97.1324 28.1962 97.1383 28.6198C97.1443 29.0434 97.1383 29.461 97.1383 29.8906C97.1383 30.3201 97.1383 30.7199 97.1383 31.0838V35.6419H94.7549V22.8863H97.9427L101.518 28.9718C101.804 29.461 102.078 29.9621 102.334 30.4812C102.591 31.0003 102.841 31.4955 103.085 31.9727C103.055 31.6565 103.037 31.2866 103.014 30.8571C102.99 30.4275 103.014 29.986 102.978 29.5147V28.1305C102.978 27.6711 102.978 27.2416 102.978 26.8538V22.8863H105.361V35.6419H102.138Z" fill="#F15A22"/>
<path d="M120.764 29.0433C120.785 30.0316 120.613 31.0144 120.258 31.9369C119.939 32.7267 119.446 33.4343 118.816 34.0072C118.17 34.5802 117.41 35.0111 116.587 35.272C115.669 35.5647 114.709 35.7077 113.745 35.6956C113.078 35.6956 112.458 35.6956 111.88 35.6956C111.302 35.6956 110.742 35.6539 110.2 35.624V22.9042C110.7 22.9042 111.314 22.8564 112.041 22.8385C112.768 22.8206 113.519 22.8087 114.311 22.8087C115.212 22.7982 116.111 22.9126 116.981 23.1488C117.737 23.3497 118.435 23.7257 119.019 24.2465C119.6 24.7762 120.044 25.4396 120.312 26.1796C120.636 27.0984 120.79 28.0691 120.764 29.0433ZM118.143 29.2343C118.15 28.617 118.078 28.0014 117.928 27.4027C117.8 26.897 117.564 26.4249 117.237 26.0185C116.906 25.6313 116.481 25.3355 116.004 25.1594C115.408 24.9519 114.781 24.8529 114.15 24.867H113.334C113.084 24.867 112.851 24.867 112.655 24.9148V33.5239C112.828 33.5239 113.036 33.5717 113.251 33.5896C113.465 33.6075 113.727 33.6194 113.978 33.6194C114.544 33.6237 115.107 33.5371 115.646 33.3629C116.136 33.2011 116.582 32.9298 116.951 32.5694C117.337 32.1821 117.633 31.7133 117.815 31.1971C118.041 30.5679 118.152 29.903 118.143 29.2343Z" fill="#F15A22"/>
<path d="M141.221 29.0434C141.237 30.0314 141.066 31.0135 140.714 31.9369C140.395 32.7335 139.9 33.4474 139.266 34.0251C138.625 34.5991 137.87 35.0303 137.05 35.2899C136.133 35.5831 135.175 35.7261 134.213 35.7135C133.546 35.7135 132.92 35.7135 132.342 35.7135C131.764 35.7135 131.204 35.6718 130.662 35.6419V22.9042C131.168 22.9042 131.782 22.8564 132.503 22.8385C133.224 22.8206 133.987 22.8087 134.779 22.8087C135.68 22.7986 136.579 22.913 137.449 23.1488C138.204 23.3511 138.902 23.727 139.487 24.2465C140.066 24.7779 140.51 25.4408 140.78 26.1796C141.1 27.0991 141.25 28.0698 141.221 29.0434ZM138.599 29.2343C138.608 28.6166 138.534 28.0005 138.378 27.4027C138.251 26.8963 138.016 26.4239 137.687 26.0185C137.358 25.6321 136.935 25.3364 136.46 25.1594C135.862 24.9515 135.233 24.8525 134.601 24.867H133.784C133.534 24.867 133.307 24.867 133.105 24.9148V33.5239C133.284 33.5239 133.486 33.5717 133.701 33.5896C133.915 33.6075 134.177 33.6194 134.434 33.6194C134.998 33.6238 135.559 33.5372 136.096 33.3629C136.587 33.1999 137.035 32.9287 137.407 32.5694C137.79 32.1802 138.083 31.7118 138.265 31.1971C138.502 30.5699 138.623 29.9048 138.623 29.2343H138.599Z" fill="#F15A22"/>
<path d="M145.153 35.6419V22.8863H152.077V24.9446H147.602V28.041H151.851V30.0576H147.602V33.518H152.077V35.6181L145.153 35.6419Z" fill="#F15A22"/>
<path d="M162.177 35.642H159.347L154.926 22.8863H157.607L160.08 30.3499C160.205 30.7139 160.336 31.1136 160.467 31.5432C160.598 31.9727 160.717 32.3963 160.813 32.802H160.854C160.956 32.3844 161.075 31.9549 161.212 31.5074C161.349 31.0599 161.486 30.6184 161.629 30.1889L164.138 22.8803H166.646L162.177 35.642Z" fill="#F15A22"/>
<path d="M169.912 35.6419V22.8863H176.842V24.9446H172.367V28.041H176.615V30.0576H172.367V33.518H176.842V35.6181L169.912 35.6419Z" fill="#F15A22"/>
<path d="M181.108 35.6419V22.8863H183.557V33.4882H187.698V35.6419H181.108Z" fill="#F15A22"/>
<path d="M201.999 29.0851C202.013 30.0519 201.847 31.0128 201.51 31.9191C201.219 32.7046 200.778 33.4259 200.211 34.043C199.656 34.6251 198.984 35.0826 198.239 35.3854C197.467 35.6972 196.641 35.8533 195.808 35.8448C194.937 35.8643 194.071 35.7144 193.258 35.4033C192.568 35.1253 191.955 34.6854 191.47 34.1206C190.975 33.5245 190.61 32.8316 190.398 32.0861C190.145 31.2222 190.022 30.3253 190.034 29.4252C190.019 28.4558 190.187 27.4923 190.529 26.5853C190.816 25.7975 191.257 25.0753 191.828 24.4613C192.388 23.8841 193.062 23.4291 193.806 23.1249C194.575 22.817 195.397 22.661 196.225 22.6655C197.018 22.6588 197.807 22.79 198.555 23.0533C199.252 23.3047 199.882 23.7129 200.396 24.2465C200.933 24.8168 201.339 25.4966 201.588 26.2393C201.883 27.1581 202.022 28.1201 201.999 29.0851ZM199.377 29.2701C199.453 28.1179 199.148 26.9729 198.507 26.0125C198.209 25.6341 197.823 25.3338 197.383 25.1374C196.943 24.941 196.462 24.8544 195.981 24.8849C195.542 24.8842 195.107 24.9756 194.706 25.1534C194.301 25.3364 193.943 25.6075 193.657 25.9469C193.326 26.3387 193.073 26.7903 192.912 27.2774C192.713 27.8833 192.618 28.5189 192.632 29.1567C192.625 29.7768 192.691 30.3955 192.829 31.0003C192.932 31.5007 193.135 31.9754 193.425 32.3963C193.694 32.7788 194.055 33.0883 194.473 33.2972C194.933 33.5213 195.44 33.6318 195.951 33.6194C196.376 33.6168 196.796 33.5338 197.19 33.3748C197.61 33.1995 197.986 32.9348 198.293 32.5992C198.644 32.2048 198.913 31.7445 199.085 31.2449C199.304 30.61 199.409 29.9415 199.395 29.2701H199.377Z" fill="#F15A22"/>
<path d="M214.113 26.7583C214.117 27.354 214.002 27.9444 213.773 28.4945C213.553 29.0318 213.215 29.5129 212.784 29.9025C212.325 30.3163 211.788 30.6347 211.205 30.8392C210.54 31.0746 209.837 31.1898 209.132 31.1792H208.744C208.597 31.1789 208.449 31.167 208.303 31.1435V35.6419H205.848V22.8863C206.373 22.8863 206.921 22.8385 207.481 22.8266C208.041 22.8147 208.631 22.8266 209.269 22.8266C210.552 22.7429 211.825 23.11 212.868 23.8647C213.282 24.22 213.61 24.6654 213.825 25.1669C214.041 25.6685 214.14 26.2128 214.113 26.7583ZM211.569 26.9254C211.579 26.6435 211.532 26.3625 211.429 26.0997C211.327 25.837 211.171 25.5981 210.973 25.398C210.467 24.9674 209.812 24.7532 209.15 24.8014H208.709C208.566 24.8014 208.423 24.8014 208.285 24.8014V29.0553C208.522 29.091 208.761 29.1089 209.001 29.109C209.665 29.1289 210.315 28.9181 210.842 28.5124C211.075 28.3199 211.261 28.0771 211.387 27.8023C211.513 27.5274 211.575 27.2277 211.569 26.9254Z" fill="#F15A22"/>
<path d="M229.475 35.6419L228.569 29.5564C228.47 28.9797 228.392 28.4368 228.336 27.9277C228.281 27.4186 228.227 26.9472 228.176 26.5137H228.134C228.05 26.9134 227.955 27.343 227.854 27.7905C227.741 28.279 227.602 28.761 227.437 29.2343L225.417 35.6419H222.986L221.043 29.6758C220.864 29.1328 220.709 28.6019 220.578 28.0768C220.447 27.5518 220.328 27.0268 220.227 26.5018H220.191C220.155 27.0984 220.102 27.6115 220.042 28.1246C219.982 28.6377 219.911 29.1865 219.833 29.7533L219.118 35.63H216.622L218.588 22.8743H221.454L223.587 29.4371C223.713 29.813 223.838 30.2306 223.957 30.6841C224.076 31.1375 224.195 31.6148 224.308 32.1219C224.41 31.6267 224.517 31.1792 224.63 30.7676C224.743 30.3559 224.874 29.9264 225.023 29.4729L227.216 22.9101H230.064L232.043 35.6658L229.475 35.6419Z" fill="#F15A22"/>
<path d="M235.856 35.6419V22.8863H242.78V24.9446H238.311V28.041H242.554V30.0576H238.311V33.518H242.78V35.6181L235.856 35.6419Z" fill="#F15A22"/>
<path d="M254.435 35.6419L250.693 29.1985C250.419 28.7152 250.169 28.2439 249.943 27.7785C249.716 27.3132 249.508 26.8717 249.317 26.454C249.317 26.7344 249.347 27.0507 249.365 27.4265C249.383 27.8024 249.365 28.1962 249.4 28.6198C249.436 29.0434 249.4 29.461 249.4 29.8906C249.4 30.3201 249.4 30.7199 249.4 31.0838V35.6419H247.017V22.8863H250.264L253.84 28.9718C254.126 29.461 254.4 29.9621 254.662 30.4812L255.407 31.9727C255.407 31.6565 255.359 31.2866 255.341 30.8571C255.323 30.4275 255.305 29.986 255.299 29.5147V28.1305C255.299 27.6711 255.299 27.2416 255.299 26.8538V22.8863H257.683V35.6419H254.435Z" fill="#F15A22"/>
<path d="M266.734 24.9804V35.6419H264.279V24.9804H260.99V22.8863H270.047V24.9804H266.734Z" fill="#F15A22"/>
</svg>
