<svg width="41" height="41" viewBox="0 0 41 41" fill="none" xmlns="http://www.w3.org/2000/svg">
<path d="M6.18158 0.697266C3.04814 0.697266 0.500549 3.24485 0.500549 6.3783V34.7834C0.500549 37.9169 3.04814 40.4645 6.18158 40.4645H34.5867C37.7202 40.4645 40.2678 37.9169 40.2678 34.7834V6.3783C40.2678 3.24485 37.7202 0.697266 34.5867 0.697266H6.18158ZM32.554 8.15362L23.3401 18.6813L34.1784 33.0081H25.6924L19.0527 24.3179L11.4454 33.0081H7.22902L17.0821 21.7437L6.68755 8.15362H15.3866L21.3961 16.0982L28.3376 8.15362H32.554ZM29.1986 30.4872L14.1173 10.5414H11.6052L26.8552 30.4872H29.1898H29.1986Z" fill="#F15A22"/>
</svg>
