<svg width="41" height="41" viewBox="0 0 41 41" fill="none" xmlns="http://www.w3.org/2000/svg">
<path id="Vector" d="M25.7653 20.3657L17.3148 15.5634V25.1679L25.7653 20.3657ZM34.8194 0.464355H6.41435C3.28092 0.464355 0.733337 3.01193 0.733337 6.14537V34.5504C0.733337 37.6839 3.28092 40.2314 6.41435 40.2314H34.8194C37.9528 40.2314 40.5004 37.6839 40.5004 34.5504V6.14537C40.5004 3.01193 37.9528 0.464355 34.8194 0.464355ZM36.0976 12.5454C36.7723 15.0841 36.7723 20.3745 36.7723 20.3745C36.7723 20.3745 36.7723 25.665 36.0976 28.1948C35.7248 29.5973 34.633 30.6536 33.2394 31.0264C30.7273 31.7099 20.6169 31.7099 20.6169 31.7099C20.6169 31.7099 10.5065 31.7099 7.99438 31.0353C6.60076 30.6625 5.50894 29.6062 5.13612 28.2037C4.4615 25.665 4.4615 20.3745 4.4615 20.3745C4.4615 20.3745 4.4615 15.0752 5.13612 12.5454C5.50894 11.1429 6.60076 10.0422 7.99438 9.66937C10.5065 8.98587 20.6169 8.98587 20.6169 8.98587C20.6169 8.98587 30.7273 8.98587 33.2394 9.66937C34.633 10.0422 35.7248 11.1429 36.0976 12.5454Z" fill="#F15A22"/>
</svg>
