<svg width="70" height="60" viewBox="0 0 70 60" fill="none" xmlns="http://www.w3.org/2000/svg">
<rect width="70" height="60" fill="white"/>
<path d="M12 10.5H58C58.8284 10.5 59.5 11.1716 59.5 12V38.5H10.5V12C10.5 11.1716 11.1716 10.5 12 10.5Z" fill="white" stroke="#263238"/>
<rect x="31.5" y="41.5" width="7" height="6" fill="white" stroke="#263238"/>
<path d="M28 46.5H42C42.8284 46.5 43.5 47.1716 43.5 48V49.5H26.5V48C26.5 47.1716 27.1716 46.5 28 46.5Z" fill="white" stroke="#263238"/>
<rect x="14" y="14" width="42" height="21" rx="2" fill="#FFE2DD"/>
<path d="M58.3241 3.76777L59.0312 4.47487C59.617 5.06066 59.617 6.01041 59.0312 6.59619L48.071 17.5563L45.2426 14.7279L56.2028 3.76777C56.7886 3.18198 57.7383 3.18198 58.3241 3.76777Z" fill="#00ADF8" stroke="#263238"/>
<path d="M42.7678 20.0311L44.9491 14.7878L48.011 17.8497L42.7678 20.0311Z" fill="white" stroke="#263238" stroke-linejoin="round"/>
<line x1="59.0313" y1="3.76762" x2="47.0105" y2="15.7884" stroke="#263238"/>
<path d="M38.9091 19L30 19C28.8954 19 28 19.8954 28 21L28 29C28 30.1046 28.8954 31 30 31L41 31C42.1046 31 43 30.1046 43 29L43 22.5294" stroke="#00ADF8"/>
</svg>
