<svg width="68" height="45" viewBox="0 0 68 45" fill="none" xmlns="http://www.w3.org/2000/svg">
<rect y="2.60059" width="57.2147" height="41.6107" rx="2" fill="#00ADF8"/>
<rect x="3.10083" y="0.5" width="54.9144" height="40.6107" rx="1.5" fill="white" stroke="#263238"/>
<line x1="2.60083" y1="9.90234" x2="57.2149" y2="9.90234" stroke="black"/>
<rect x="9.10254" y="15.6045" width="13.0033" height="18.2047" fill="#FFE2DD"/>
<rect x="24.7065" y="15.6045" width="13.0033" height="18.2047" fill="#FFE2DD"/>
<rect x="40.3105" y="15.6045" width="13.0033" height="18.2047" fill="#FFE2DD"/>
<circle cx="9.10234" cy="5.2017" r="1.30033" fill="#78909C"/>
<circle cx="13.0032" cy="5.2017" r="1.30033" fill="#78909C"/>
<circle cx="16.9043" cy="5.2017" r="1.30033" fill="#78909C"/>
<path d="M56.0299 16.7961C55.8753 16.7072 55.685 16.7073 55.5306 16.7965C55.3761 16.8857 55.2809 17.0504 55.2806 17.2287L55.2614 28.8985C55.2611 29.0772 55.3563 29.2426 55.511 29.3321C55.6658 29.4216 55.8565 29.4217 56.0114 29.3323L59.183 27.5011L61.0365 30.7115C61.1746 30.9506 61.4804 31.0325 61.7195 30.8945L64.6453 29.2053C64.8844 29.0672 64.9664 28.7614 64.8283 28.5223L62.9748 25.3119L66.1465 23.4808C66.3013 23.3914 66.3966 23.2261 66.3965 23.0474C66.3963 22.8686 66.3007 22.7035 66.1458 22.6144L56.0299 16.7961Z" fill="white" stroke="#263238" stroke-linejoin="round"/>
</svg>
