<svg width="70" height="60" viewBox="0 0 70 60" fill="none" xmlns="http://www.w3.org/2000/svg">
<rect width="70" height="60" fill="white"/>
<rect x="16.4615" y="13.4619" width="8.46154" height="8.46154" rx="2" transform="rotate(90 16.4615 13.4619)" fill="#00ADF8"/>
<rect x="16.4615" y="24.7432" width="8.46154" height="8.46154" rx="2" transform="rotate(90 16.4615 24.7432)" fill="#00ADF8"/>
<rect x="27.7436" y="13.4619" width="8.46154" height="8.46154" rx="2" transform="rotate(90 27.7436 13.4619)" fill="#00ADF8"/>
<rect x="27.7436" y="24.7432" width="8.46154" height="8.46154" rx="2" transform="rotate(90 27.7436 24.7432)" fill="#00ADF8"/>
<rect x="27.7436" y="36.0254" width="8.46154" height="8.46154" rx="2" transform="rotate(90 27.7436 36.0254)" fill="#00ADF8"/>
<rect x="39.0256" y="13.4619" width="8.46154" height="8.46154" rx="2" transform="rotate(90 39.0256 13.4619)" fill="#00ADF8"/>
<rect x="39.0256" y="24.7432" width="8.46154" height="8.46154" rx="2" transform="rotate(90 39.0256 24.7432)" fill="#00ADF8"/>
<rect x="39.0256" y="36.0254" width="8.46154" height="8.46154" rx="2" transform="rotate(90 39.0256 36.0254)" fill="#00ADF8"/>
<rect x="62.5" y="5.5" width="49.7692" height="27.2051" rx="1.5" transform="rotate(90 62.5 5.5)" fill="white" stroke="#263238"/>
<line x1="44.6667" y1="7.32031" x2="53.1282" y2="7.32031" stroke="#263238"/>
<line x1="44.6667" y1="52.4482" x2="53.1282" y2="52.4482" stroke="#263238"/>
<rect x="39.0256" y="9.23047" width="19.7436" height="40.8974" fill="#FFE2DD"/>
</svg>
