<svg width="55" height="51" viewBox="0 0 55 51" fill="none" xmlns="http://www.w3.org/2000/svg">
<rect x="8.46143" y="8.46191" width="8.46154" height="8.46154" rx="2" transform="rotate(90 8.46143 8.46191)" fill="#00ADF8"/>
<rect x="8.46143" y="19.7432" width="8.46154" height="8.46154" rx="2" transform="rotate(90 8.46143 19.7432)" fill="#00ADF8"/>
<rect x="19.7435" y="8.46191" width="8.46154" height="8.46154" rx="2" transform="rotate(90 19.7435 8.46191)" fill="#00ADF8"/>
<rect x="19.7435" y="19.7432" width="8.46154" height="8.46154" rx="2" transform="rotate(90 19.7435 19.7432)" fill="#00ADF8"/>
<rect x="19.7435" y="31.0254" width="8.46154" height="8.46154" rx="2" transform="rotate(90 19.7435 31.0254)" fill="#00ADF8"/>
<rect x="31.0256" y="8.46191" width="8.46154" height="8.46154" rx="2" transform="rotate(90 31.0256 8.46191)" fill="#00ADF8"/>
<rect x="31.0256" y="19.7432" width="8.46154" height="8.46154" rx="2" transform="rotate(90 31.0256 19.7432)" fill="#00ADF8"/>
<rect x="31.0256" y="31.0254" width="8.46154" height="8.46154" rx="2" transform="rotate(90 31.0256 31.0254)" fill="#00ADF8"/>
<rect x="54.5" y="0.5" width="49.7692" height="27.2051" rx="1.5" transform="rotate(90 54.5 0.5)" fill="white" stroke="#263238"/>
<line x1="36.6666" y1="2.32031" x2="45.1282" y2="2.32031" stroke="#263238"/>
<line x1="36.6666" y1="47.4482" x2="45.1282" y2="47.4482" stroke="#263238"/>
<rect x="31.0256" y="4.23047" width="19.7436" height="40.8974" fill="#FFE2DD"/>
</svg>
